<?xml version="1.0" encoding="UTF-8"?>
<!DOCTYPE svg PUBLIC "-//W3C//DTD SVG 1.1//EN" "http://www.w3.org/Graphics/SVG/1.1/DTD/svg11.dtd">
<svg version="1.2" width="215.9mm" height="279.4mm" viewBox="0 0 21590 27940" preserveAspectRatio="xMidYMid" fill-rule="evenodd" stroke-width="28.222" stroke-linejoin="round" xmlns="http://www.w3.org/2000/svg" xmlns:ooo="http://xml.openoffice.org/svg/export" xmlns:xlink="http://www.w3.org/1999/xlink" xmlns:presentation="http://sun.com/xmlns/staroffice/presentation" xmlns:smil="http://www.w3.org/2001/SMIL20/" xmlns:anim="urn:oasis:names:tc:opendocument:xmlns:animation:1.0" xmlns:svg="urn:oasis:names:tc:opendocument:xmlns:svg-compatible:1.0" xml:space="preserve">
 <defs class="ClipPathGroup">
  <clipPath id="presentation_clip_path" clipPathUnits="userSpaceOnUse">
   <rect x="0" y="0" width="21590" height="27940"/>
  </clipPath>
  <clipPath id="presentation_clip_path_shrink" clipPathUnits="userSpaceOnUse">
   <rect x="21" y="27" width="21547" height="27885"/>
  </clipPath>
 </defs>
 <defs class="TextShapeIndex">
  <g ooo:slide="id1" ooo:id-list="id3 id4 id5 id6 id7"/>
 </defs>
 <defs class="EmbeddedBulletChars">
  <g id="bullet-char-template-57356" transform="scale(0.00048828125,-0.00048828125)">
   <path d="M 580,1141 L 1163,571 580,0 -4,571 580,1141 Z"/>
  </g>
  <g id="bullet-char-template-57354" transform="scale(0.00048828125,-0.00048828125)">
   <path d="M 8,1128 L 1137,1128 1137,0 8,0 8,1128 Z"/>
  </g>
  <g id="bullet-char-template-10146" transform="scale(0.00048828125,-0.00048828125)">
   <path d="M 174,0 L 602,739 174,1481 1456,739 174,0 Z M 1358,739 L 309,1346 659,739 1358,739 Z"/>
  </g>
  <g id="bullet-char-template-10132" transform="scale(0.00048828125,-0.00048828125)">
   <path d="M 2015,739 L 1276,0 717,0 1260,543 174,543 174,936 1260,936 717,1481 1274,1481 2015,739 Z"/>
  </g>
  <g id="bullet-char-template-10007" transform="scale(0.00048828125,-0.00048828125)">
   <path d="M 0,-2 C -7,14 -16,27 -25,37 L 356,567 C 262,823 215,952 215,954 215,979 228,992 255,992 264,992 276,990 289,987 310,991 331,999 354,1012 L 381,999 492,748 772,1049 836,1024 860,1049 C 881,1039 901,1025 922,1006 886,937 835,863 770,784 769,783 710,716 594,584 L 774,223 C 774,196 753,168 711,139 L 727,119 C 717,90 699,76 672,76 641,76 570,178 457,381 L 164,-76 C 142,-110 111,-127 72,-127 30,-127 9,-110 8,-76 1,-67 -2,-52 -2,-32 -2,-23 -1,-13 0,-2 Z"/>
  </g>
  <g id="bullet-char-template-10004" transform="scale(0.00048828125,-0.00048828125)">
   <path d="M 285,-33 C 182,-33 111,30 74,156 52,228 41,333 41,471 41,549 55,616 82,672 116,743 169,778 240,778 293,778 328,747 346,684 L 369,508 C 377,444 397,411 428,410 L 1163,1116 C 1174,1127 1196,1133 1229,1133 1271,1133 1292,1118 1292,1087 L 1292,965 C 1292,929 1282,901 1262,881 L 442,47 C 390,-6 338,-33 285,-33 Z"/>
  </g>
  <g id="bullet-char-template-9679" transform="scale(0.00048828125,-0.00048828125)">
   <path d="M 813,0 C 632,0 489,54 383,161 276,268 223,411 223,592 223,773 276,916 383,1023 489,1130 632,1184 813,1184 992,1184 1136,1130 1245,1023 1353,916 1407,772 1407,592 1407,412 1353,268 1245,161 1136,54 992,0 813,0 Z"/>
  </g>
  <g id="bullet-char-template-8226" transform="scale(0.00048828125,-0.00048828125)">
   <path d="M 346,457 C 273,457 209,483 155,535 101,586 74,649 74,723 74,796 101,859 155,911 209,963 273,989 346,989 419,989 480,963 531,910 582,859 608,796 608,723 608,648 583,586 532,535 482,483 420,457 346,457 Z"/>
  </g>
  <g id="bullet-char-template-8211" transform="scale(0.00048828125,-0.00048828125)">
   <path d="M -4,459 L 1135,459 1135,606 -4,606 -4,459 Z"/>
  </g>
  <g id="bullet-char-template-61548" transform="scale(0.00048828125,-0.00048828125)">
   <path d="M 173,740 C 173,903 231,1043 346,1159 462,1274 601,1332 765,1332 928,1332 1067,1274 1183,1159 1299,1043 1357,903 1357,740 1357,577 1299,437 1183,322 1067,206 928,148 765,148 601,148 462,206 346,322 231,437 173,577 173,740 Z"/>
  </g>
 </defs>
 <g>
  <g id="id2" class="Master_Slide">
   <g id="bg-id2" class="Background"/>
   <g id="bo-id2" class="BackgroundObjects"/>
  </g>
 </g>
 <g class="SlideGroup">
  <g>
   <g id="container-id1">
    <g id="id1" class="Slide" clip-path="url(#presentation_clip_path)">
     <g class="Page">
      <g class="Group">
       <g class="Group">
        <g class="com.sun.star.drawing.CustomShape">
         <g id="id3">
          <rect class="BoundingBox" stroke="none" fill="none" x="4920" y="10205" width="11751" height="10799"/>
          <path fill="rgb(58,124,103)" stroke="none" d="M 6406,10206 L 6406,10206 C 6145,10206 5889,10275 5663,10405 5438,10535 5250,10723 5120,10949 4990,11174 4921,11430 4921,11691 L 4921,19517 4921,19517 C 4921,19778 4990,20034 5120,20260 5250,20485 5438,20673 5664,20803 5889,20933 6145,21002 6406,21002 L 15183,21002 15184,21002 C 15445,21002 15701,20933 15926,20803 16152,20673 16340,20485 16470,20260 16600,20034 16669,19778 16669,19517 L 16668,11691 16669,11691 16669,11691 C 16669,11430 16600,11174 16470,10949 16340,10723 16152,10535 15926,10405 15701,10275 15445,10206 15184,10206 L 6406,10206 Z "/>
          <path fill="none" stroke="rgb(21,132,102)" d="M 6406,10206 L 6406,10206 C 6145,10206 5889,10275 5663,10405 5438,10535 5250,10723 5120,10949 4990,11174 4921,11430 4921,11691 L 4921,19517 4921,19517 C 4921,19778 4990,20034 5120,20260 5250,20485 5438,20673 5664,20803 5889,20933 6145,21002 6406,21002 L 15183,21002 15184,21002 C 15445,21002 15701,20933 15926,20803 16152,20673 16340,20485 16470,20260 16600,20034 16669,19778 16669,19517 L 16668,11691 16669,11691 16669,11691 C 16669,11430 16600,11174 16470,10949 16340,10723 16152,10535 15926,10405 15701,10275 15445,10206 15184,10206 L 6406,10206 Z "/>
         </g>
        </g>
        <g class="com.sun.star.drawing.CustomShape">
         <g id="id4">
          <rect class="BoundingBox" stroke="none" fill="none" x="6126" y="11475" width="9339" height="8259"/>
          <path fill="rgb(252,248,247)" stroke="none" d="M 7503,11476 L 7503,11476 C 7261,11476 7024,11540 6815,11660 6606,11781 6432,11955 6311,12164 6191,12373 6127,12610 6127,12852 L 6127,18356 6127,18356 C 6127,18598 6191,18835 6311,19044 6432,19253 6606,19427 6815,19548 7024,19668 7261,19732 7503,19732 L 14087,19732 14087,19732 C 14329,19732 14566,19668 14775,19548 14984,19427 15158,19253 15279,19044 15399,18835 15463,18598 15463,18356 L 15463,12852 15463,12852 15463,12852 C 15463,12610 15399,12373 15279,12164 15158,11955 14984,11781 14775,11660 14566,11540 14329,11476 14087,11476 L 7503,11476 Z "/>
          <path fill="none" stroke="rgb(21,132,102)" d="M 7503,11476 L 7503,11476 C 7261,11476 7024,11540 6815,11660 6606,11781 6432,11955 6311,12164 6191,12373 6127,12610 6127,12852 L 6127,18356 6127,18356 C 6127,18598 6191,18835 6311,19044 6432,19253 6606,19427 6815,19548 7024,19668 7261,19732 7503,19732 L 14087,19732 14087,19732 C 14329,19732 14566,19668 14775,19548 14984,19427 15158,19253 15279,19044 15399,18835 15463,18598 15463,18356 L 15463,12852 15463,12852 15463,12852 C 15463,12610 15399,12373 15279,12164 15158,11955 14984,11781 14775,11660 14566,11540 14329,11476 14087,11476 L 7503,11476 Z "/>
         </g>
        </g>
        <g class="com.sun.star.drawing.CustomShape">
         <g id="id5">
          <rect class="BoundingBox" stroke="none" fill="none" x="7131" y="12745" width="7329" height="6037"/>
          <path fill="rgb(101,166,126)" stroke="none" d="M 8137,12746 L 8138,12746 C 7961,12746 7788,12792 7635,12881 7482,12969 7355,13096 7267,13249 7178,13402 7132,13575 7132,13752 L 7132,17774 7132,17774 C 7132,17951 7178,18124 7267,18277 7355,18430 7482,18557 7635,18645 7788,18734 7961,18780 8138,18780 L 13452,18780 13452,18780 C 13629,18780 13802,18734 13955,18645 14108,18557 14235,18430 14323,18277 14412,18124 14458,17951 14458,17774 L 14458,13751 14458,13752 14458,13752 C 14458,13575 14412,13402 14323,13249 14235,13096 14108,12969 13955,12881 13802,12792 13629,12746 13452,12746 L 8137,12746 Z "/>
          <path fill="none" stroke="rgb(21,132,102)" d="M 8137,12746 L 8138,12746 C 7961,12746 7788,12792 7635,12881 7482,12969 7355,13096 7267,13249 7178,13402 7132,13575 7132,13752 L 7132,17774 7132,17774 C 7132,17951 7178,18124 7267,18277 7355,18430 7482,18557 7635,18645 7788,18734 7961,18780 8138,18780 L 13452,18780 13452,18780 C 13629,18780 13802,18734 13955,18645 14108,18557 14235,18430 14323,18277 14412,18124 14458,17951 14458,17774 L 14458,13751 14458,13752 14458,13752 C 14458,13575 14412,13402 14323,13249 14235,13096 14108,12969 13955,12881 13802,12792 13629,12746 13452,12746 L 8137,12746 Z "/>
         </g>
        </g>
        <g class="com.sun.star.drawing.CustomShape">
         <g id="id6">
          <rect class="BoundingBox" stroke="none" fill="none" x="8515" y="5760" width="4561" height="4449"/>
          <path fill="rgb(58,124,103)" stroke="none" d="M 13074,7984 C 13074,8374 12969,8758 12769,9096 12569,9433 12281,9714 11935,9909 11588,10104 11195,10207 10795,10207 10395,10207 10002,10104 9656,9909 9309,9714 9021,9433 8821,9096 8621,8758 8516,8374 8516,7984 8516,7594 8621,7210 8821,6873 9021,6535 9309,6254 9655,6059 10002,5864 10395,5761 10795,5761 11195,5761 11588,5864 11934,6059 12281,6254 12569,6535 12769,6872 12969,7210 13074,7594 13074,7984 L 13074,7984 Z "/>
          <path fill="none" stroke="rgb(52,101,164)" d="M 13074,7984 C 13074,8374 12969,8758 12769,9096 12569,9433 12281,9714 11935,9909 11588,10104 11195,10207 10795,10207 10395,10207 10002,10104 9656,9909 9309,9714 9021,9433 8821,9096 8621,8758 8516,8374 8516,7984 8516,7594 8621,7210 8821,6873 9021,6535 9309,6254 9655,6059 10002,5864 10395,5761 10795,5761 11195,5761 11588,5864 11934,6059 12281,6254 12569,6535 12769,6872 12969,7210 13074,7594 13074,7984 L 13074,7984 Z "/>
         </g>
        </g>
        <g class="com.sun.star.drawing.CustomShape">
         <g id="id7">
          <rect class="BoundingBox" stroke="none" fill="none" x="10000" y="13698" width="1591" height="1592"/>
          <path fill="rgb(252,248,247)" stroke="none" d="M 11589,14494 C 11589,14633 11552,14770 11483,14891 11413,15012 11313,15112 11192,15182 11071,15251 10934,15288 10795,15288 10656,15288 10519,15251 10398,15182 10277,15112 10177,15012 10107,14891 10038,14770 10001,14633 10001,14494 10001,14354 10038,14217 10107,14096 10177,13975 10277,13875 10398,13805 10519,13736 10656,13699 10795,13699 10934,13699 11071,13736 11192,13805 11313,13875 11413,13975 11483,14096 11552,14217 11589,14354 11589,14494 L 11589,14494 Z "/>
          <path fill="none" stroke="rgb(52,101,164)" d="M 11589,14494 C 11589,14633 11552,14770 11483,14891 11413,15012 11313,15112 11192,15182 11071,15251 10934,15288 10795,15288 10656,15288 10519,15251 10398,15182 10277,15112 10177,15012 10107,14891 10038,14770 10001,14633 10001,14494 10001,14354 10038,14217 10107,14096 10177,13975 10277,13875 10398,13805 10519,13736 10656,13699 10795,13699 10934,13699 11071,13736 11192,13805 11313,13875 11413,13975 11483,14096 11552,14217 11589,14354 11589,14494 Z "/>
         </g>
        </g>
       </g>
      </g>
     </g>
    </g>
   </g>
  </g>
 </g>
</svg>