<svg xmlns="http://www.w3.org/2000/svg" xmlns:xlink="http://www.w3.org/1999/xlink" contentStyleType="text/css" data-diagram-type="CLASS" height="1094px" preserveAspectRatio="none" style="width:1391px;height:1094px;background:#1B1B1B;" version="1.1" viewBox="0 0 1391 1094" width="1391px" zoomAndPan="magnify"><defs/><g><rect fill="#1B1B1B" height="1094" style="stroke:none;stroke-width:1;" width="1391" x="0" y="0"/><!--cluster patrimonio--><g class="cluster" data-entity="patrimonio" data-source-line="2" data-uid="ent0002" id="cluster_patrimonio"><path d="M8.5,715.632 L87.6897,715.632 A3.75,3.75 0 0 1 90.1897,718.132 L97.1897,740.6999 L675.5,740.6999 A2.5,2.5 0 0 1 678,743.1999 L678,1085.142 A2.5,2.5 0 0 1 675.5,1087.642 L8.5,1087.642 A2.5,2.5 0 0 1 6,1085.142 L6,718.132 A2.5,2.5 0 0 1 8.5,715.632" fill="none" style="stroke:#FFFFFF;stroke-width:1.5;"/><line style="stroke:#FFFFFF;stroke-width:1.5;" x1="6" x2="97.1897" y1="740.6999" y2="740.6999"/><text fill="#FFFFFF" font-family="sans-serif" font-size="14" font-weight="bold" lengthAdjust="spacing" textLength="78.1897" x="10" y="732.5979">patrimonio</text></g><!--cluster core--><g class="cluster" data-entity="core" data-source-line="36" data-uid="ent0012" id="cluster_core"><path d="M974.5,6.602 L1006.0899,6.602 A3.75,3.75 0 0 1 1008.5899,9.102 L1015.5899,31.6699 L1381.5,31.6699 A2.5,2.5 0 0 1 1384,34.1699 L1384,862.802 A2.5,2.5 0 0 1 1381.5,865.302 L974.5,865.302 A2.5,2.5 0 0 1 972,862.802 L972,9.102 A2.5,2.5 0 0 1 974.5,6.602" fill="none" style="stroke:#FFFFFF;stroke-width:1.5;"/><line style="stroke:#FFFFFF;stroke-width:1.5;" x1="972" x2="1015.5899" y1="31.6699" y2="31.6699"/><text fill="#FFFFFF" font-family="sans-serif" font-size="14" font-weight="bold" lengthAdjust="spacing" textLength="30.5899" x="976" y="23.5679">core</text></g><!--cluster ensino--><g class="cluster" data-entity="ensino" data-source-line="71" data-uid="ent0019" id="cluster_ensino"><path d="M704.5,687.032 L752.0218,687.032 A3.75,3.75 0 0 1 754.5218,689.532 L761.5218,712.0999 L945.5,712.0999 A2.5,2.5 0 0 1 948,714.5999 L948,1075.612 A2.5,2.5 0 0 1 945.5,1078.112 L704.5,1078.112 A2.5,2.5 0 0 1 702,1075.612 L702,689.532 A2.5,2.5 0 0 1 704.5,687.032" fill="none" style="stroke:#FFFFFF;stroke-width:1.5;"/><line style="stroke:#FFFFFF;stroke-width:1.5;" x1="702" x2="761.5218" y1="712.0999" y2="712.0999"/><text fill="#FFFFFF" font-family="sans-serif" font-size="14" font-weight="bold" lengthAdjust="spacing" textLength="46.5218" x="706" y="703.9979">ensino</text></g><!--cluster emprestimo--><g class="cluster" data-entity="emprestimo" data-source-line="95" data-uid="ent0025" id="cluster_emprestimo"><path d="M356.5,130.542 L442.6617,130.542 A3.75,3.75 0 0 1 445.1617,133.042 L452.1617,155.6099 L775.5,155.6099 A2.5,2.5 0 0 1 778,158.1099 L778,633.532 A2.5,2.5 0 0 1 775.5,636.032 L356.5,636.032 A2.5,2.5 0 0 1 354,633.532 L354,133.042 A2.5,2.5 0 0 1 356.5,130.542" fill="none" style="stroke:#FFFFFF;stroke-width:1.5;"/><line style="stroke:#FFFFFF;stroke-width:1.5;" x1="354" x2="452.1617" y1="155.6099" y2="155.6099"/><text fill="#FFFFFF" font-family="sans-serif" font-size="14" font-weight="bold" lengthAdjust="spacing" textLength="85.1617" x="358" y="147.5079">emprestimo</text></g><!--class TipoBem--><g class="entity" data-entity="TipoBem" data-source-line="3" data-uid="ent0003" id="entity_TipoBem"><rect fill="#313139" height="86.1358" rx="2.5" ry="2.5" style="stroke:#E7E7E7;stroke-width:0.5;" width="113.3037" x="22.35" y="975.972"/><ellipse cx="47.5839" cy="991.972" fill="#2E5233" rx="11" ry="11" style="stroke:#E7E7E7;stroke-width:1;"/><path d="M47.0526,998.8939 Q45.3026,998.8939 44.162,998.1595 Q43.037,997.4095 42.4745,996.0657 Q41.9276,994.7064 41.9276,992.9095 Q41.9276,990.8782 42.5839,989.4251 Q43.2401,987.972 44.5214,987.1907 Q45.8026,986.4095 47.6776,986.4095 Q48.5682,986.4095 49.2401,986.597 Q49.912,986.7689 50.5995,987.1126 L49.787,989.1282 Q49.162,988.8157 48.6151,988.6907 Q48.0839,988.5657 47.5995,988.5657 Q46.4276,988.5657 45.7245,989.097 Q45.0214,989.6282 44.7245,990.5814 Q44.4276,991.5345 44.4276,992.8001 Q44.4276,994.8157 45.1464,995.7845 Q45.8651,996.7376 47.4589,996.7376 Q48.0526,996.7376 48.6776,996.5814 Q49.3026,996.4251 50.1307,996.0501 L50.1307,998.2689 Q49.3964,998.5814 48.5995,998.7376 Q47.8182,998.8939 47.0526,998.8939 Z " fill="#FFFFFF"/><text fill="#FFFFFF" font-family="sans-serif" font-size="14" lengthAdjust="spacing" textLength="58.5618" x="63.8581" y="997.404">TipoBem</text><line style="stroke:#E7E7E7;stroke-width:0.5;" x1="23.35" x2="134.6537" y1="1007.972" y2="1007.972"/><ellipse cx="33.35" cy="1023.0059" fill="none" rx="3" ry="3" style="stroke:#038048;stroke-width:1;"/><text fill="#FFFFFF" font-family="sans-serif" font-size="14" lengthAdjust="spacing" textLength="87.3037" x="42.35" y="1026.9379">descricao: str</text><ellipse cx="33.35" cy="1042.0739" fill="none" rx="3" ry="3" style="stroke:#038048;stroke-width:1;"/><text fill="#FFFFFF" font-family="sans-serif" font-size="14" lengthAdjust="spacing" textLength="72.2957" x="42.35" y="1046.0058">ativo : bool</text><line style="stroke:#E7E7E7;stroke-width:0.5;" x1="23.35" x2="134.6537" y1="1054.1078" y2="1054.1078"/></g><!--class GrauFragilidade--><g class="entity" data-entity="GrauFragilidade" data-source-line="8" data-uid="ent0004" id="entity_GrauFragilidade"><rect fill="#313139" height="86.1358" rx="2.5" ry="2.5" style="stroke:#E7E7E7;stroke-width:0.5;" width="137.7976" x="171.1" y="975.972"/><ellipse cx="186.1" cy="991.972" fill="#2E5233" rx="11" ry="11" style="stroke:#E7E7E7;stroke-width:1;"/><path d="M185.5688,998.8939 Q183.8188,998.8939 182.6781,998.1595 Q181.5531,997.4095 180.9906,996.0657 Q180.4438,994.7064 180.4438,992.9095 Q180.4438,990.8782 181.1,989.4251 Q181.7563,987.972 183.0375,987.1907 Q184.3188,986.4095 186.1938,986.4095 Q187.0844,986.4095 187.7563,986.597 Q188.4281,986.7689 189.1156,987.1126 L188.3031,989.1282 Q187.6781,988.8157 187.1313,988.6907 Q186.6,988.5657 186.1156,988.5657 Q184.9438,988.5657 184.2406,989.097 Q183.5375,989.6282 183.2406,990.5814 Q182.9438,991.5345 182.9438,992.8001 Q182.9438,994.8157 183.6625,995.7845 Q184.3813,996.7376 185.975,996.7376 Q186.5688,996.7376 187.1938,996.5814 Q187.8188,996.4251 188.6469,996.0501 L188.6469,998.2689 Q187.9125,998.5814 187.1156,998.7376 Q186.3344,998.8939 185.5688,998.8939 Z " fill="#FFFFFF"/><text fill="#FFFFFF" font-family="sans-serif" font-size="14" lengthAdjust="spacing" textLength="105.7976" x="200.1" y="997.404">GrauFragilidade</text><line style="stroke:#E7E7E7;stroke-width:0.5;" x1="172.1" x2="307.8976" y1="1007.972" y2="1007.972"/><ellipse cx="182.1" cy="1023.0059" fill="none" rx="3" ry="3" style="stroke:#038048;stroke-width:1;"/><text fill="#FFFFFF" font-family="sans-serif" font-size="14" lengthAdjust="spacing" textLength="87.3037" x="191.1" y="1026.9379">descricao: str</text><ellipse cx="182.1" cy="1042.0739" fill="none" rx="3" ry="3" style="stroke:#038048;stroke-width:1;"/><text fill="#FFFFFF" font-family="sans-serif" font-size="14" lengthAdjust="spacing" textLength="68.6557" x="191.1" y="1046.0058">ativo: bool</text><line style="stroke:#E7E7E7;stroke-width:0.5;" x1="172.1" x2="307.8976" y1="1054.1078" y2="1054.1078"/></g><!--class EstadoConservacao--><g class="entity" data-entity="EstadoConservacao" data-source-line="13" data-uid="ent0005" id="entity_EstadoConservacao"><rect fill="#313139" height="86.1358" rx="2.5" ry="2.5" style="stroke:#E7E7E7;stroke-width:0.5;" width="160.8415" x="343.58" y="975.972"/><ellipse cx="358.58" cy="991.972" fill="#2E5233" rx="11" ry="11" style="stroke:#E7E7E7;stroke-width:1;"/><path d="M358.0488,998.8939 Q356.2988,998.8939 355.1581,998.1595 Q354.0331,997.4095 353.4706,996.0657 Q352.9238,994.7064 352.9238,992.9095 Q352.9238,990.8782 353.58,989.4251 Q354.2363,987.972 355.5175,987.1907 Q356.7988,986.4095 358.6738,986.4095 Q359.5644,986.4095 360.2363,986.597 Q360.9081,986.7689 361.5956,987.1126 L360.7831,989.1282 Q360.1581,988.8157 359.6113,988.6907 Q359.08,988.5657 358.5956,988.5657 Q357.4238,988.5657 356.7206,989.097 Q356.0175,989.6282 355.7206,990.5814 Q355.4238,991.5345 355.4238,992.8001 Q355.4238,994.8157 356.1425,995.7845 Q356.8613,996.7376 358.455,996.7376 Q359.0488,996.7376 359.6738,996.5814 Q360.2988,996.4251 361.1269,996.0501 L361.1269,998.2689 Q360.3925,998.5814 359.5956,998.7376 Q358.8144,998.8939 358.0488,998.8939 Z " fill="#FFFFFF"/><text fill="#FFFFFF" font-family="sans-serif" font-size="14" lengthAdjust="spacing" textLength="128.8415" x="372.58" y="997.404">EstadoConservacao</text><line style="stroke:#E7E7E7;stroke-width:0.5;" x1="344.58" x2="503.4215" y1="1007.972" y2="1007.972"/><ellipse cx="354.58" cy="1023.0059" fill="none" rx="3" ry="3" style="stroke:#038048;stroke-width:1;"/><text fill="#FFFFFF" font-family="sans-serif" font-size="14" lengthAdjust="spacing" textLength="87.3037" x="363.58" y="1026.9379">descricao: str</text><ellipse cx="354.58" cy="1042.0739" fill="none" rx="3" ry="3" style="stroke:#038048;stroke-width:1;"/><text fill="#FFFFFF" font-family="sans-serif" font-size="14" lengthAdjust="spacing" textLength="68.6557" x="363.58" y="1046.0058">ativo: bool</text><line style="stroke:#E7E7E7;stroke-width:0.5;" x1="344.58" x2="503.4215" y1="1054.1078" y2="1054.1078"/></g><!--class MarcaModelo--><g class="entity" data-entity="MarcaModelo" data-source-line="18" data-uid="ent0006" id="entity_MarcaModelo"><rect fill="#313139" height="105.2038" rx="2.5" ry="2.5" style="stroke:#E7E7E7;stroke-width:0.5;" width="122.6637" x="539.67" y="966.442"/><ellipse cx="554.67" cy="982.442" fill="#2E5233" rx="11" ry="11" style="stroke:#E7E7E7;stroke-width:1;"/><path d="M554.1388,989.3639 Q552.3888,989.3639 551.2481,988.6295 Q550.1231,987.8795 549.5606,986.5357 Q549.0138,985.1764 549.0138,983.3795 Q549.0138,981.3482 549.67,979.8951 Q550.3263,978.442 551.6075,977.6607 Q552.8888,976.8795 554.7638,976.8795 Q555.6544,976.8795 556.3263,977.067 Q556.9981,977.2389 557.6856,977.5826 L556.8731,979.5982 Q556.2481,979.2857 555.7013,979.1607 Q555.17,979.0357 554.6856,979.0357 Q553.5138,979.0357 552.8106,979.567 Q552.1075,980.0982 551.8106,981.0514 Q551.5138,982.0045 551.5138,983.2701 Q551.5138,985.2857 552.2325,986.2545 Q552.9513,987.2076 554.545,987.2076 Q555.1388,987.2076 555.7638,987.0514 Q556.3888,986.8951 557.2169,986.5201 L557.2169,988.7389 Q556.4825,989.0514 555.6856,989.2076 Q554.9044,989.3639 554.1388,989.3639 Z " fill="#FFFFFF"/><text fill="#FFFFFF" font-family="sans-serif" font-size="14" lengthAdjust="spacing" textLength="90.6637" x="568.67" y="987.874">MarcaModelo</text><line style="stroke:#E7E7E7;stroke-width:0.5;" x1="540.67" x2="661.3337" y1="998.442" y2="998.442"/><ellipse cx="550.67" cy="1013.4759" fill="none" rx="3" ry="3" style="stroke:#038048;stroke-width:1;"/><text fill="#FFFFFF" font-family="sans-serif" font-size="14" lengthAdjust="spacing" textLength="55.3278" x="559.67" y="1017.4079">sigla: str</text><ellipse cx="550.67" cy="1032.5439" fill="none" rx="3" ry="3" style="stroke:#038048;stroke-width:1;"/><text fill="#FFFFFF" font-family="sans-serif" font-size="14" lengthAdjust="spacing" textLength="87.3037" x="559.67" y="1036.4758">descricao: str</text><ellipse cx="550.67" cy="1051.6118" fill="none" rx="3" ry="3" style="stroke:#038048;stroke-width:1;"/><text fill="#FFFFFF" font-family="sans-serif" font-size="14" lengthAdjust="spacing" textLength="68.6557" x="559.67" y="1055.5438">ativo: bool</text><line style="stroke:#E7E7E7;stroke-width:0.5;" x1="540.67" x2="661.3337" y1="1063.6457" y2="1063.6457"/></g><!--class Bem--><g class="entity" data-entity="Bem" data-source-line="24" data-uid="ent0007" id="entity_Bem"><rect fill="#313139" height="105.2038" rx="2.5" ry="2.5" style="stroke:#E7E7E7;stroke-width:0.5;" width="124.1396" x="352.93" y="753.632"/><ellipse cx="395.8542" cy="769.632" fill="#2E5233" rx="11" ry="11" style="stroke:#E7E7E7;stroke-width:1;"/><path d="M395.3229,776.5539 Q393.5729,776.5539 392.4323,775.8195 Q391.3073,775.0695 390.7448,773.7257 Q390.1979,772.3664 390.1979,770.5695 Q390.1979,768.5382 390.8542,767.0851 Q391.5104,765.632 392.7917,764.8507 Q394.0729,764.0695 395.9479,764.0695 Q396.8386,764.0695 397.5104,764.257 Q398.1823,764.4289 398.8698,764.7726 L398.0573,766.7882 Q397.4323,766.4757 396.8854,766.3507 Q396.3542,766.2257 395.8698,766.2257 Q394.6979,766.2257 393.9948,766.757 Q393.2917,767.2882 392.9948,768.2414 Q392.6979,769.1945 392.6979,770.4601 Q392.6979,772.4757 393.4167,773.4445 Q394.1354,774.3976 395.7292,774.3976 Q396.3229,774.3976 396.9479,774.2414 Q397.5729,774.0851 398.4011,773.7101 L398.4011,775.9289 Q397.6667,776.2414 396.8698,776.3976 Q396.0886,776.5539 395.3229,776.5539 Z " fill="#FFFFFF"/><text fill="#FFFFFF" font-family="sans-serif" font-size="14" lengthAdjust="spacing" textLength="30.0859" x="416.0596" y="775.064">Bem</text><line style="stroke:#E7E7E7;stroke-width:0.5;" x1="353.93" x2="476.0696" y1="785.632" y2="785.632"/><ellipse cx="363.93" cy="800.6659" fill="none" rx="3" ry="3" style="stroke:#038048;stroke-width:1;"/><text fill="#FFFFFF" font-family="sans-serif" font-size="14" lengthAdjust="spacing" textLength="98.1396" x="372.93" y="804.5979">patrimonio: str</text><ellipse cx="363.93" cy="819.7339" fill="none" rx="3" ry="3" style="stroke:#038048;stroke-width:1;"/><text fill="#FFFFFF" font-family="sans-serif" font-size="14" lengthAdjust="spacing" textLength="87.3037" x="372.93" y="823.6658">descricao: str</text><ellipse cx="363.93" cy="838.8018" fill="none" rx="3" ry="3" style="stroke:#038048;stroke-width:1;"/><text fill="#FFFFFF" font-family="sans-serif" font-size="14" lengthAdjust="spacing" textLength="68.6557" x="372.93" y="842.7338">ativo: bool</text><line style="stroke:#E7E7E7;stroke-width:0.5;" x1="353.93" x2="476.0696" y1="850.8357" y2="850.8357"/></g><!--class User--><g class="entity" data-entity="User" data-source-line="37" data-uid="ent0013" id="entity_User"><rect fill="#313139" height="334.0188" rx="2.5" ry="2.5" style="stroke:#E7E7E7;stroke-width:0.5;" width="379.8066" x="988.1" y="44.602"/><ellipse cx="1158.4444" cy="60.602" fill="#2E5233" rx="11" ry="11" style="stroke:#E7E7E7;stroke-width:1;"/><path d="M1157.9131,67.5239 Q1156.1631,67.5239 1155.0225,66.7895 Q1153.8975,66.0395 1153.335,64.6957 Q1152.7881,63.3364 1152.7881,61.5395 Q1152.7881,59.5082 1153.4444,58.0551 Q1154.1006,56.602 1155.3819,55.8207 Q1156.6631,55.0395 1158.5381,55.0395 Q1159.4288,55.0395 1160.1006,55.227 Q1160.7725,55.3989 1161.46,55.7426 L1160.6475,57.7582 Q1160.0225,57.4457 1159.4756,57.3207 Q1158.9444,57.1957 1158.46,57.1957 Q1157.2881,57.1957 1156.585,57.727 Q1155.8819,58.2582 1155.585,59.2114 Q1155.2881,60.1645 1155.2881,61.4301 Q1155.2881,63.4457 1156.0069,64.4145 Q1156.7256,65.3676 1158.3194,65.3676 Q1158.9131,65.3676 1159.5381,65.2114 Q1160.1631,65.0551 1160.9913,64.6801 L1160.9913,66.8989 Q1160.2569,67.2114 1159.46,67.3676 Q1158.6788,67.5239 1157.9131,67.5239 Z " fill="#FFFFFF"/><text fill="#FFFFFF" font-family="sans-serif" font-size="14" lengthAdjust="spacing" textLength="30.6179" x="1178.9444" y="66.034">User</text><line style="stroke:#E7E7E7;stroke-width:0.5;" x1="989.1" x2="1366.9066" y1="76.602" y2="76.602"/><ellipse cx="999.1" cy="91.6359" fill="none" rx="3" ry="3" style="stroke:#038048;stroke-width:1;"/><text fill="#FFFFFF" font-family="sans-serif" font-size="14" lengthAdjust="spacing" textLength="36.9319" x="1008.1" y="95.5679">id: int</text><ellipse cx="999.1" cy="110.7039" fill="none" rx="3" ry="3" style="stroke:#038048;stroke-width:1;"/><text fill="#FFFFFF" font-family="sans-serif" font-size="14" lengthAdjust="spacing" textLength="99.2036" x="1008.1" y="114.6358">last_login: date</text><ellipse cx="999.1" cy="129.7718" fill="none" rx="3" ry="3" style="stroke:#038048;stroke-width:1;"/><text fill="#FFFFFF" font-family="sans-serif" font-size="14" lengthAdjust="spacing" textLength="119.7695" x="1008.1" y="133.7038">is_superuser: bool</text><ellipse cx="999.1" cy="148.8397" fill="none" rx="3" ry="3" style="stroke:#038048;stroke-width:1;"/><text fill="#FFFFFF" font-family="sans-serif" font-size="14" lengthAdjust="spacing" textLength="91.4617" x="1008.1" y="152.7717">username: str</text><ellipse cx="999.1" cy="167.9076" fill="none" rx="3" ry="3" style="stroke:#038048;stroke-width:1;"/><text fill="#FFFFFF" font-family="sans-serif" font-size="14" lengthAdjust="spacing" textLength="94.6116" x="1008.1" y="171.8396">first_name: str</text><ellipse cx="999.1" cy="186.9755" fill="none" rx="3" ry="3" style="stroke:#038048;stroke-width:1;"/><text fill="#FFFFFF" font-family="sans-serif" font-size="14" lengthAdjust="spacing" textLength="91.8677" x="1008.1" y="190.9075">last_name: str</text><ellipse cx="999.1" cy="206.0434" fill="none" rx="3" ry="3" style="stroke:#038048;stroke-width:1;"/><text fill="#FFFFFF" font-family="sans-serif" font-size="14" lengthAdjust="spacing" textLength="60.9978" x="1008.1" y="209.9754">email: str</text><ellipse cx="999.1" cy="225.1114" fill="none" rx="3" ry="3" style="stroke:#038048;stroke-width:1;"/><text fill="#FFFFFF" font-family="sans-serif" font-size="14" lengthAdjust="spacing" textLength="107.2256" x="1008.1" y="229.0433">is_staff: Boolean</text><ellipse cx="999.1" cy="244.1793" fill="none" rx="3" ry="3" style="stroke:#038048;stroke-width:1;"/><text fill="#FFFFFF" font-family="sans-serif" font-size="14" lengthAdjust="spacing" textLength="116.2275" x="1008.1" y="248.1113">is_active: Boolean</text><ellipse cx="999.1" cy="263.2472" fill="none" rx="3" ry="3" style="stroke:#038048;stroke-width:1;"/><text fill="#FFFFFF" font-family="sans-serif" font-size="14" lengthAdjust="spacing" textLength="113.2876" x="1008.1" y="267.1792">date_joined: date</text><line style="stroke:#E7E7E7;stroke-width:1;" x1="989.1" x2="1366.9066" y1="275.2812" y2="275.2812"/><ellipse cx="999.1" cy="290.3151" fill="#84BE84" rx="3" ry="3" style="stroke:#038048;stroke-width:1;"/><text fill="#FFFFFF" font-family="sans-serif" font-size="14" lengthAdjust="spacing" textLength="246.9731" x="1008.1" y="294.2471">check_password(raw_password): bool</text><ellipse cx="999.1" cy="309.383" fill="#84BE84" rx="3" ry="3" style="stroke:#038048;stroke-width:1;"/><text fill="#FFFFFF" font-family="sans-serif" font-size="14" lengthAdjust="spacing" textLength="227.8072" x="1008.1" y="313.315">set_password(raw_password): void</text><ellipse cx="999.1" cy="328.4509" fill="#84BE84" rx="3" ry="3" style="stroke:#038048;stroke-width:1;"/><text fill="#FFFFFF" font-family="sans-serif" font-size="14" lengthAdjust="spacing" textLength="125.5095" x="1008.1" y="332.3829">get_full_name(): str</text><ellipse cx="999.1" cy="347.5189" fill="#84BE84" rx="3" ry="3" style="stroke:#038048;stroke-width:1;"/><text fill="#FFFFFF" font-family="sans-serif" font-size="14" lengthAdjust="spacing" textLength="139.4815" x="1008.1" y="351.4508">get_short_name(): str</text><ellipse cx="999.1" cy="366.5868" fill="#84BE84" rx="3" ry="3" style="stroke:#038048;stroke-width:1;"/><text fill="#FFFFFF" font-family="sans-serif" font-size="14" lengthAdjust="spacing" textLength="353.8066" x="1008.1" y="370.5188">email_user(subject, message, from_email=None): void</text></g><!--class Group--><g class="entity" data-entity="Group" data-source-line="56" data-uid="ent0014" id="entity_Group"><rect fill="#313139" height="67.0679" rx="2.5" ry="2.5" style="stroke:#E7E7E7;stroke-width:0.5;" width="88.4258" x="1060.79" y="505.292"/><ellipse cx="1082.414" cy="521.292" fill="#2E5233" rx="11" ry="11" style="stroke:#E7E7E7;stroke-width:1;"/><path d="M1081.8827,528.2139 Q1080.1327,528.2139 1078.9921,527.4795 Q1077.8671,526.7295 1077.3046,525.3857 Q1076.7577,524.0264 1076.7577,522.2295 Q1076.7577,520.1982 1077.414,518.7451 Q1078.0702,517.292 1079.3515,516.5107 Q1080.6327,515.7295 1082.5077,515.7295 Q1083.3983,515.7295 1084.0702,515.917 Q1084.7421,516.0889 1085.4296,516.4326 L1084.6171,518.4482 Q1083.9921,518.1357 1083.4452,518.0107 Q1082.914,517.8857 1082.4296,517.8857 Q1081.2577,517.8857 1080.5546,518.417 Q1079.8515,518.9482 1079.5546,519.9014 Q1079.2577,520.8545 1079.2577,522.1201 Q1079.2577,524.1357 1079.9765,525.1045 Q1080.6952,526.0576 1082.289,526.0576 Q1082.8827,526.0576 1083.5077,525.9014 Q1084.1327,525.7451 1084.9608,525.3701 L1084.9608,527.5889 Q1084.2265,527.9014 1083.4296,528.0576 Q1082.6483,528.2139 1081.8827,528.2139 Z " fill="#FFFFFF"/><text fill="#FFFFFF" font-family="sans-serif" font-size="14" lengthAdjust="spacing" textLength="41.7058" x="1097.886" y="526.724">Group</text><line style="stroke:#E7E7E7;stroke-width:0.5;" x1="1061.79" x2="1148.2158" y1="537.292" y2="537.292"/><ellipse cx="1071.79" cy="552.3259" fill="none" rx="3" ry="3" style="stroke:#038048;stroke-width:1;"/><text fill="#FFFFFF" font-family="sans-serif" font-size="14" lengthAdjust="spacing" textLength="62.4258" x="1080.79" y="556.2579">name: str</text><line style="stroke:#E7E7E7;stroke-width:0.5;" x1="1061.79" x2="1148.2158" y1="564.3599" y2="564.3599"/></g><!--class Permission--><g class="entity" data-entity="Permission" data-source-line="60" data-uid="ent0015" id="entity_Permission"><rect fill="#313139" height="86.1358" rx="2.5" ry="2.5" style="stroke:#E7E7E7;stroke-width:0.5;" width="120.1216" x="1117.94" y="763.162"/><ellipse cx="1139.7467" cy="779.162" fill="#2E5233" rx="11" ry="11" style="stroke:#E7E7E7;stroke-width:1;"/><path d="M1139.2154,786.0839 Q1137.4654,786.0839 1136.3248,785.3495 Q1135.1998,784.5995 1134.6373,783.2557 Q1134.0904,781.8964 1134.0904,780.0995 Q1134.0904,778.0682 1134.7467,776.6151 Q1135.4029,775.162 1136.6842,774.3807 Q1137.9654,773.5995 1139.8404,773.5995 Q1140.731,773.5995 1141.4029,773.787 Q1142.0748,773.9589 1142.7623,774.3026 L1141.9498,776.3182 Q1141.3248,776.0057 1140.7779,775.8807 Q1140.2467,775.7557 1139.7623,775.7557 Q1138.5904,775.7557 1137.8873,776.287 Q1137.1842,776.8182 1136.8873,777.7714 Q1136.5904,778.7245 1136.5904,779.9901 Q1136.5904,782.0057 1137.3092,782.9745 Q1138.0279,783.9276 1139.6217,783.9276 Q1140.2154,783.9276 1140.8404,783.7714 Q1141.4654,783.6151 1142.2935,783.2401 L1142.2935,785.4589 Q1141.5592,785.7714 1140.7623,785.9276 Q1139.981,786.0839 1139.2154,786.0839 Z " fill="#FFFFFF"/><text fill="#FFFFFF" font-family="sans-serif" font-size="14" lengthAdjust="spacing" textLength="72.9957" x="1155.2593" y="784.594">Permission</text><line style="stroke:#E7E7E7;stroke-width:0.5;" x1="1118.94" x2="1237.0616" y1="795.162" y2="795.162"/><ellipse cx="1128.94" cy="810.1959" fill="none" rx="3" ry="3" style="stroke:#038048;stroke-width:1;"/><text fill="#FFFFFF" font-family="sans-serif" font-size="14" lengthAdjust="spacing" textLength="62.4258" x="1137.94" y="814.1279">name: str</text><ellipse cx="1128.94" cy="829.2639" fill="none" rx="3" ry="3" style="stroke:#038048;stroke-width:1;"/><text fill="#FFFFFF" font-family="sans-serif" font-size="14" lengthAdjust="spacing" textLength="94.1216" x="1137.94" y="833.1958">codename: str</text><line style="stroke:#E7E7E7;stroke-width:0.5;" x1="1118.94" x2="1237.0616" y1="841.2978" y2="841.2978"/></g><!--class Campus--><g class="entity" data-entity="Campus" data-source-line="72" data-uid="ent0020" id="entity_Campus"><rect fill="#313139" height="86.1358" rx="2.5" ry="2.5" style="stroke:#E7E7E7;stroke-width:0.5;" width="89.0418" x="718.48" y="975.972"/><ellipse cx="734.9569" cy="991.972" fill="#2E5233" rx="11" ry="11" style="stroke:#E7E7E7;stroke-width:1;"/><path d="M734.4256,998.8939 Q732.6756,998.8939 731.535,998.1595 Q730.41,997.4095 729.8475,996.0657 Q729.3006,994.7064 729.3006,992.9095 Q729.3006,990.8782 729.9569,989.4251 Q730.6131,987.972 731.8944,987.1907 Q733.1756,986.4095 735.0506,986.4095 Q735.9413,986.4095 736.6131,986.597 Q737.285,986.7689 737.9725,987.1126 L737.16,989.1282 Q736.535,988.8157 735.9881,988.6907 Q735.4569,988.5657 734.9725,988.5657 Q733.8006,988.5657 733.0975,989.097 Q732.3944,989.6282 732.0975,990.5814 Q731.8006,991.5345 731.8006,992.8001 Q731.8006,994.8157 732.5194,995.7845 Q733.2381,996.7376 734.8319,996.7376 Q735.4256,996.7376 736.0506,996.5814 Q736.6756,996.4251 737.5038,996.0501 L737.5038,998.2689 Q736.7694,998.5814 735.9725,998.7376 Q735.1913,998.8939 734.4256,998.8939 Z " fill="#FFFFFF"/><text fill="#FFFFFF" font-family="sans-serif" font-size="14" lengthAdjust="spacing" textLength="53.7598" x="749.2851" y="997.404">Campus</text><line style="stroke:#E7E7E7;stroke-width:0.5;" x1="719.48" x2="806.5218" y1="1007.972" y2="1007.972"/><ellipse cx="729.48" cy="1023.0059" fill="none" rx="3" ry="3" style="stroke:#038048;stroke-width:1;"/><text fill="#FFFFFF" font-family="sans-serif" font-size="14" lengthAdjust="spacing" textLength="55.3278" x="738.48" y="1026.9379">sigla: str</text><ellipse cx="729.48" cy="1042.0739" fill="none" rx="3" ry="3" style="stroke:#038048;stroke-width:1;"/><text fill="#FFFFFF" font-family="sans-serif" font-size="14" lengthAdjust="spacing" textLength="63.0418" x="738.48" y="1046.0058">nome: str</text><line style="stroke:#E7E7E7;stroke-width:0.5;" x1="719.48" x2="806.5218" y1="1054.1078" y2="1054.1078"/></g><!--class Curso--><g class="entity" data-entity="Curso" data-source-line="77" data-uid="ent0021" id="entity_Curso"><rect fill="#313139" height="86.1358" rx="2.5" ry="2.5" style="stroke:#E7E7E7;stroke-width:0.5;" width="89.0418" x="842.48" y="975.972"/><ellipse cx="865.8428" cy="991.972" fill="#2E5233" rx="11" ry="11" style="stroke:#E7E7E7;stroke-width:1;"/><path d="M865.3115,998.8939 Q863.5615,998.8939 862.4209,998.1595 Q861.2959,997.4095 860.7334,996.0657 Q860.1865,994.7064 860.1865,992.9095 Q860.1865,990.8782 860.8428,989.4251 Q861.499,987.972 862.7803,987.1907 Q864.0615,986.4095 865.9365,986.4095 Q866.8271,986.4095 867.499,986.597 Q868.1709,986.7689 868.8584,987.1126 L868.0459,989.1282 Q867.4209,988.8157 866.874,988.6907 Q866.3428,988.5657 865.8584,988.5657 Q864.6865,988.5657 863.9834,989.097 Q863.2803,989.6282 862.9834,990.5814 Q862.6865,991.5345 862.6865,992.8001 Q862.6865,994.8157 863.4053,995.7845 Q864.124,996.7376 865.7178,996.7376 Q866.3115,996.7376 866.9365,996.5814 Q867.5615,996.4251 868.3896,996.0501 L868.3896,998.2689 Q867.6553,998.5814 866.8584,998.7376 Q866.0771,998.8939 865.3115,998.8939 Z " fill="#FFFFFF"/><text fill="#FFFFFF" font-family="sans-serif" font-size="14" lengthAdjust="spacing" textLength="38.4579" x="881.7011" y="997.404">Curso</text><line style="stroke:#E7E7E7;stroke-width:0.5;" x1="843.48" x2="930.5218" y1="1007.972" y2="1007.972"/><ellipse cx="853.48" cy="1023.0059" fill="none" rx="3" ry="3" style="stroke:#038048;stroke-width:1;"/><text fill="#FFFFFF" font-family="sans-serif" font-size="14" lengthAdjust="spacing" textLength="55.3278" x="862.48" y="1026.9379">sigla: str</text><ellipse cx="853.48" cy="1042.0739" fill="none" rx="3" ry="3" style="stroke:#038048;stroke-width:1;"/><text fill="#FFFFFF" font-family="sans-serif" font-size="14" lengthAdjust="spacing" textLength="63.0418" x="862.48" y="1046.0058">nome: str</text><line style="stroke:#E7E7E7;stroke-width:0.5;" x1="843.48" x2="930.5218" y1="1054.1078" y2="1054.1078"/></g><!--class Aluno--><g class="entity" data-entity="Aluno" data-source-line="82" data-uid="ent0022" id="entity_Aluno"><rect fill="#313139" height="162.4075" rx="2.5" ry="2.5" style="stroke:#E7E7E7;stroke-width:0.5;" width="174.5534" x="717.72" y="725.032"/><ellipse cx="781.5808" cy="741.032" fill="#2E5233" rx="11" ry="11" style="stroke:#E7E7E7;stroke-width:1;"/><path d="M781.0495,747.9539 Q779.2995,747.9539 778.1589,747.2195 Q777.0339,746.4695 776.4714,745.1257 Q775.9245,743.7664 775.9245,741.9695 Q775.9245,739.9382 776.5808,738.4851 Q777.237,737.032 778.5183,736.2507 Q779.7995,735.4695 781.6745,735.4695 Q782.5652,735.4695 783.237,735.657 Q783.9089,735.8289 784.5964,736.1726 L783.7839,738.1882 Q783.1589,737.8757 782.612,737.7507 Q782.0808,737.6257 781.5964,737.6257 Q780.4245,737.6257 779.7214,738.157 Q779.0183,738.6882 778.7214,739.6414 Q778.4245,740.5945 778.4245,741.8601 Q778.4245,743.8757 779.1433,744.8445 Q779.862,745.7976 781.4558,745.7976 Q782.0495,745.7976 782.6745,745.6414 Q783.2995,745.4851 784.1277,745.1101 L784.1277,747.3289 Q783.3933,747.6414 782.5964,747.7976 Q781.8152,747.9539 781.0495,747.9539 Z " fill="#FFFFFF"/><text fill="#FFFFFF" font-family="sans-serif" font-size="14" lengthAdjust="spacing" textLength="38.3318" x="802.0808" y="746.464">Aluno</text><line style="stroke:#E7E7E7;stroke-width:0.5;" x1="718.72" x2="891.2734" y1="757.032" y2="757.032"/><ellipse cx="728.72" cy="772.0659" fill="none" rx="3" ry="3" style="stroke:#038048;stroke-width:1;"/><text fill="#FFFFFF" font-family="sans-serif" font-size="14" lengthAdjust="spacing" textLength="63.0418" x="737.72" y="775.9979">nome: str</text><ellipse cx="728.72" cy="791.1339" fill="none" rx="3" ry="3" style="stroke:#038048;stroke-width:1;"/><text fill="#FFFFFF" font-family="sans-serif" font-size="14" lengthAdjust="spacing" textLength="148.5534" x="737.72" y="795.0658">nome_responsavel: str</text><ellipse cx="728.72" cy="810.2018" fill="none" rx="3" ry="3" style="stroke:#038048;stroke-width:1;"/><text fill="#FFFFFF" font-family="sans-serif" font-size="14" lengthAdjust="spacing" textLength="45.0798" x="737.72" y="814.1338">cpf: str</text><ellipse cx="728.72" cy="829.2697" fill="none" rx="3" ry="3" style="stroke:#038048;stroke-width:1;"/><text fill="#FFFFFF" font-family="sans-serif" font-size="14" lengthAdjust="spacing" textLength="60.9978" x="737.72" y="833.2017">email: str</text><ellipse cx="728.72" cy="848.3376" fill="none" rx="3" ry="3" style="stroke:#038048;stroke-width:1;"/><text fill="#FFFFFF" font-family="sans-serif" font-size="14" lengthAdjust="spacing" textLength="87.1637" x="737.72" y="852.2696">matricula: str</text><ellipse cx="728.72" cy="867.4055" fill="none" rx="3" ry="3" style="stroke:#038048;stroke-width:1;"/><text fill="#FFFFFF" font-family="sans-serif" font-size="14" lengthAdjust="spacing" textLength="79.2257" x="737.72" y="871.3375">telefone: str</text><line style="stroke:#E7E7E7;stroke-width:0.5;" x1="718.72" x2="891.2734" y1="879.4395" y2="879.4395"/></g><!--class TipoOcorrencia--><g class="entity" data-entity="TipoOcorrencia" data-source-line="96" data-uid="ent0026" id="entity_TipoOcorrencia"><rect fill="#313139" height="67.0679" rx="2.5" ry="2.5" style="stroke:#E7E7E7;stroke-width:0.5;" width="132.8976" x="369.55" y="505.292"/><ellipse cx="384.55" cy="521.292" fill="#2E5233" rx="11" ry="11" style="stroke:#E7E7E7;stroke-width:1;"/><path d="M384.0188,528.2139 Q382.2688,528.2139 381.1281,527.4795 Q380.0031,526.7295 379.4406,525.3857 Q378.8938,524.0264 378.8938,522.2295 Q378.8938,520.1982 379.55,518.7451 Q380.2063,517.292 381.4875,516.5107 Q382.7688,515.7295 384.6438,515.7295 Q385.5344,515.7295 386.2063,515.917 Q386.8781,516.0889 387.5656,516.4326 L386.7531,518.4482 Q386.1281,518.1357 385.5813,518.0107 Q385.05,517.8857 384.5656,517.8857 Q383.3938,517.8857 382.6906,518.417 Q381.9875,518.9482 381.6906,519.9014 Q381.3938,520.8545 381.3938,522.1201 Q381.3938,524.1357 382.1125,525.1045 Q382.8313,526.0576 384.425,526.0576 Q385.0188,526.0576 385.6438,525.9014 Q386.2688,525.7451 387.0969,525.3701 L387.0969,527.5889 Q386.3625,527.9014 385.5656,528.0576 Q384.7844,528.2139 384.0188,528.2139 Z " fill="#FFFFFF"/><text fill="#FFFFFF" font-family="sans-serif" font-size="14" lengthAdjust="spacing" textLength="100.8976" x="398.55" y="526.724">TipoOcorrencia</text><line style="stroke:#E7E7E7;stroke-width:0.5;" x1="370.55" x2="501.4476" y1="537.292" y2="537.292"/><ellipse cx="380.55" cy="552.3259" fill="none" rx="3" ry="3" style="stroke:#038048;stroke-width:1;"/><text fill="#FFFFFF" font-family="sans-serif" font-size="14" lengthAdjust="spacing" textLength="87.3037" x="389.55" y="556.2579">descricao: str</text><line style="stroke:#E7E7E7;stroke-width:0.5;" x1="370.55" x2="501.4476" y1="564.3599" y2="564.3599"/></g><!--class Ocorrencia--><g class="entity" data-entity="Ocorrencia" data-source-line="99" data-uid="ent0027" id="entity_Ocorrencia"><rect fill="#313139" height="86.1358" rx="2.5" ry="2.5" style="stroke:#E7E7E7;stroke-width:0.5;" width="193.6914" x="387.15" y="168.542"/><ellipse cx="443.5348" cy="184.542" fill="#2E5233" rx="11" ry="11" style="stroke:#E7E7E7;stroke-width:1;"/><path d="M443.0036,191.4639 Q441.2536,191.4639 440.113,190.7295 Q438.988,189.9795 438.4255,188.6357 Q437.8786,187.2764 437.8786,185.4795 Q437.8786,183.4482 438.5348,181.9951 Q439.1911,180.542 440.4723,179.7607 Q441.7536,178.9795 443.6286,178.9795 Q444.5192,178.9795 445.1911,179.167 Q445.863,179.3389 446.5505,179.6826 L445.738,181.6982 Q445.113,181.3857 444.5661,181.2607 Q444.0348,181.1357 443.5505,181.1357 Q442.3786,181.1357 441.6755,181.667 Q440.9723,182.1982 440.6755,183.1514 Q440.3786,184.1045 440.3786,185.3701 Q440.3786,187.3857 441.0973,188.3545 Q441.8161,189.3076 443.4098,189.3076 Q444.0036,189.3076 444.6286,189.1514 Q445.2536,188.9951 446.0817,188.6201 L446.0817,190.8389 Q445.3473,191.1514 444.5505,191.3076 Q443.7692,191.4639 443.0036,191.4639 Z " fill="#FFFFFF"/><text fill="#FFFFFF" font-family="sans-serif" font-size="14" lengthAdjust="spacing" textLength="72.4217" x="464.0348" y="189.974">Ocorrencia</text><line style="stroke:#E7E7E7;stroke-width:0.5;" x1="388.15" x2="579.8414" y1="200.542" y2="200.542"/><ellipse cx="398.15" cy="215.5759" fill="none" rx="3" ry="3" style="stroke:#038048;stroke-width:1;"/><text fill="#FFFFFF" font-family="sans-serif" font-size="14" lengthAdjust="spacing" textLength="142.3515" x="407.15" y="219.5079">data_ocorrencia: date</text><ellipse cx="398.15" cy="234.6439" fill="none" rx="3" ry="3" style="stroke:#038048;stroke-width:1;"/><text fill="#FFFFFF" font-family="sans-serif" font-size="14" lengthAdjust="spacing" textLength="167.6914" x="407.15" y="238.5758">emprestimo: Emprestimo</text><line style="stroke:#E7E7E7;stroke-width:0.5;" x1="388.15" x2="579.8414" y1="246.6778" y2="246.6778"/></g><!--class Emprestimo--><g class="entity" data-entity="Emprestimo" data-source-line="103" data-uid="ent0028" id="entity_Emprestimo"><rect fill="#313139" height="162.4075" rx="2.5" ry="2.5" style="stroke:#E7E7E7;stroke-width:0.5;" width="224.6313" x="537.68" y="457.622"/><ellipse cx="605.6988" cy="473.622" fill="#2E5233" rx="11" ry="11" style="stroke:#E7E7E7;stroke-width:1;"/><path d="M605.1675,480.5439 Q603.4175,480.5439 602.2769,479.8095 Q601.1519,479.0595 600.5894,477.7157 Q600.0425,476.3564 600.0425,474.5595 Q600.0425,472.5282 600.6988,471.0751 Q601.355,469.622 602.6363,468.8407 Q603.9175,468.0595 605.7925,468.0595 Q606.6832,468.0595 607.355,468.247 Q608.0269,468.4189 608.7144,468.7626 L607.9019,470.7782 Q607.2769,470.4657 606.73,470.3407 Q606.1988,470.2157 605.7144,470.2157 Q604.5425,470.2157 603.8394,470.747 Q603.1363,471.2782 602.8394,472.2314 Q602.5425,473.1845 602.5425,474.4501 Q602.5425,476.4657 603.2613,477.4345 Q603.98,478.3876 605.5738,478.3876 Q606.1675,478.3876 606.7925,478.2314 Q607.4175,478.0751 608.2457,477.7001 L608.2457,479.9189 Q607.5113,480.2314 606.7144,480.3876 Q605.9332,480.5439 605.1675,480.5439 Z " fill="#FFFFFF"/><text fill="#FFFFFF" font-family="sans-serif" font-size="14" lengthAdjust="spacing" textLength="80.0937" x="626.1988" y="479.054">Emprestimo</text><line style="stroke:#E7E7E7;stroke-width:0.5;" x1="538.68" x2="761.3113" y1="489.622" y2="489.622"/><ellipse cx="548.68" cy="504.6559" fill="none" rx="3" ry="3" style="stroke:#038048;stroke-width:1;"/><text fill="#FFFFFF" font-family="sans-serif" font-size="14" lengthAdjust="spacing" textLength="152.5994" x="557.68" y="508.5879">data_emprestimo: date</text><ellipse cx="548.68" cy="523.7239" fill="none" rx="3" ry="3" style="stroke:#038048;stroke-width:1;"/><text fill="#FFFFFF" font-family="sans-serif" font-size="14" lengthAdjust="spacing" textLength="198.6313" x="557.68" y="527.6558">data_devolucao_prevista: date</text><ellipse cx="548.68" cy="542.7918" fill="none" rx="3" ry="3" style="stroke:#038048;stroke-width:1;"/><text fill="#FFFFFF" font-family="sans-serif" font-size="14" lengthAdjust="spacing" textLength="139.7895" x="557.68" y="546.7238">data_devolucao: date</text><ellipse cx="548.68" cy="561.8597" fill="none" rx="3" ry="3" style="stroke:#038048;stroke-width:1;"/><text fill="#FFFFFF" font-family="sans-serif" font-size="14" lengthAdjust="spacing" textLength="67.0737" x="557.68" y="565.7917">bem: Bem</text><ellipse cx="548.68" cy="580.9276" fill="none" rx="3" ry="3" style="stroke:#038048;stroke-width:1;"/><text fill="#FFFFFF" font-family="sans-serif" font-size="14" lengthAdjust="spacing" textLength="82.9637" x="557.68" y="584.8596">aluno: Aluno</text><ellipse cx="548.68" cy="599.9955" fill="none" rx="3" ry="3" style="stroke:#038048;stroke-width:1;"/><text fill="#FFFFFF" font-family="sans-serif" font-size="14" lengthAdjust="spacing" textLength="69.2997" x="557.68" y="603.9275">estado: int</text><line style="stroke:#E7E7E7;stroke-width:0.5;" x1="538.68" x2="761.3113" y1="612.0295" y2="612.0295"/></g><!--link Bem to TipoBem--><g class="link" data-entity-1="Bem" data-entity-2="TipoBem" data-source-line="30" data-uid="lnk8" id="link_Bem_TipoBem"><path codeLine="30" d="M352.44,844.082 C299.19,875.752 220.92,923.052 154,966.442 C148.16,970.222 142.12,974.232 136.11,978.272" fill="none" id="Bem-TipoBem" style="stroke:#E7E7E7;stroke-width:1;"/><text fill="#FFFFFF" font-family="sans-serif" font-size="13" lengthAdjust="spacing" textLength="23.907" x="225.93" y="932.339">tipo</text></g><!--link Bem to GrauFragilidade--><g class="link" data-entity-1="Bem" data-entity-2="GrauFragilidade" data-source-line="31" data-uid="lnk9" id="link_Bem_GrauFragilidade"><path codeLine="31" d="M358.62,859.182 C340.64,876.912 321.21,897.352 305,917.442 C290.37,935.562 276.1,957.082 264.68,975.562" fill="none" id="Bem-GrauFragilidade" style="stroke:#E7E7E7;stroke-width:1;"/><text fill="#FFFFFF" font-family="sans-serif" font-size="13" lengthAdjust="spacing" textLength="96.7721" x="306" y="932.339">grauFragilidade</text></g><!--link Bem to EstadoConservacao--><g class="link" data-entity-1="Bem" data-entity-2="EstadoConservacao" data-source-line="32" data-uid="lnk10" id="link_Bem_EstadoConservacao"><path codeLine="32" d="M411.52,859.162 C410.52,882.762 410.14,911.042 412,936.442 C412.94,949.292 414.7,963.192 416.59,975.812" fill="none" id="Bem-EstadoConservacao" style="stroke:#E7E7E7;stroke-width:1;"/><text fill="#FFFFFF" font-family="sans-serif" font-size="13" lengthAdjust="spacing" textLength="119.7431" x="413" y="932.339">estadoConservacao</text></g><!--link Bem to MarcaModelo--><g class="link" data-entity-1="Bem" data-entity-2="MarcaModelo" data-source-line="33" data-uid="lnk11" id="link_Bem_MarcaModelo"><path codeLine="33" d="M477.37,857.762 C497.52,875.562 519.23,896.392 537,917.442 C549.56,932.302 561.52,949.812 571.63,966.032" fill="none" id="Bem-MarcaModelo" style="stroke:#E7E7E7;stroke-width:1;"/><text fill="#FFFFFF" font-family="sans-serif" font-size="13" lengthAdjust="spacing" textLength="84.5521" x="552.03" y="932.339">marcaModelo</text></g><!--link User to Group--><g class="link" data-entity-1="User" data-entity-2="Group" data-source-line="65" data-uid="lnk16" id="link_User_Group"><path codeLine="65" d="M1140.64,379.032 C1129.88,427.012 1119.21,474.542 1112.39,504.912" fill="none" id="User-Group" style="stroke:#E7E7E7;stroke-width:1;"/><text fill="#FFFFFF" font-family="sans-serif" font-size="13" lengthAdjust="spacing" textLength="43.485" x="1133.81" y="423.519">groups</text><text fill="#FFFFFF" font-family="sans-serif" font-size="13" lengthAdjust="spacing" textLength="21.567" x="1117.6327" y="400.3655">0..*</text><text fill="#FFFFFF" font-family="sans-serif" font-size="13" lengthAdjust="spacing" textLength="21.567" x="1090.833" y="493.5282">0..*</text></g><!--link User to Permission--><g class="link" data-entity-1="User" data-entity-2="Permission" data-source-line="66" data-uid="lnk17" id="link_User_Permission"><path codeLine="66" d="M1207.8,379.092 C1219.18,466.282 1226.7,574.672 1214,671.032 C1209.87,702.362 1200.54,736.772 1192.41,762.902" fill="none" id="User-Permission" style="stroke:#E7E7E7;stroke-width:1;"/><text fill="#FFFFFF" font-family="sans-serif" font-size="13" lengthAdjust="spacing" textLength="106.8731" x="1221.62" y="544.219">user_permissions</text><text fill="#FFFFFF" font-family="sans-serif" font-size="13" lengthAdjust="spacing" textLength="21.567" x="1187.626" y="400.4281">0..*</text><text fill="#FFFFFF" font-family="sans-serif" font-size="13" lengthAdjust="spacing" textLength="21.567" x="1172.1044" y="751.2735">0..*</text></g><!--link Group to Permission--><g class="link" data-entity-1="Group" data-entity-2="Permission" data-source-line="67" data-uid="lnk18" id="link_Group_Permission"><path codeLine="67" d="M1111.32,572.672 C1116.67,599.342 1124.92,637.842 1134,671.032 C1142.51,702.132 1153.89,736.692 1162.94,762.952" fill="none" id="Group-Permission" style="stroke:#E7E7E7;stroke-width:1;"/><text fill="#FFFFFF" font-family="sans-serif" font-size="13" lengthAdjust="spacing" textLength="74.1391" x="1135" y="666.929">permissions</text><text fill="#FFFFFF" font-family="sans-serif" font-size="13" lengthAdjust="spacing" textLength="21.567" x="1089.6254" y="594.1748">0..*</text><text fill="#FFFFFF" font-family="sans-serif" font-size="13" lengthAdjust="spacing" textLength="21.567" x="1137.7534" y="751.3317">0..*</text></g><!--link Aluno to Campus--><g class="link" data-entity-1="Aluno" data-entity-2="Campus" data-source-line="91" data-uid="lnk23" id="link_Aluno_Campus"><path codeLine="91" d="M788.94,887.832 C782.99,917.702 776.48,950.392 771.47,975.552" fill="none" id="Aluno-Campus" style="stroke:#E7E7E7;stroke-width:1;"/><text fill="#FFFFFF" font-family="sans-serif" font-size="13" lengthAdjust="spacing" textLength="47.944" x="783.74" y="932.339">campus</text><text fill="#FFFFFF" font-family="sans-serif" font-size="13" lengthAdjust="spacing" textLength="21.567" x="765.7643" y="909.2193">0..*</text><text fill="#FFFFFF" font-family="sans-serif" font-size="13" lengthAdjust="spacing" textLength="7.436" x="765.2967" y="964.2197">1</text></g><!--link Aluno to Curso--><g class="link" data-entity-1="Aluno" data-entity-2="Curso" data-source-line="92" data-uid="lnk24" id="link_Aluno_Curso"><path codeLine="92" d="M836.35,887.832 C847.97,917.702 860.69,950.392 870.47,975.552" fill="none" id="Aluno-Curso" style="stroke:#E7E7E7;stroke-width:1;"/><text fill="#FFFFFF" font-family="sans-serif" font-size="13" lengthAdjust="spacing" textLength="33.735" x="854.34" y="932.339">curso</text><text fill="#FFFFFF" font-family="sans-serif" font-size="13" lengthAdjust="spacing" textLength="21.567" x="817.1004" y="909.2193">0..*</text><text fill="#FFFFFF" font-family="sans-serif" font-size="13" lengthAdjust="spacing" textLength="7.436" x="860.3123" y="964.2197">1</text></g><!--link Emprestimo to Bem--><g class="link" data-entity-1="Emprestimo" data-entity-2="Bem" data-source-line="112" data-uid="lnk29" id="link_Emprestimo_Bem"><path codeLine="112" d="M578.85,620.182 C540.62,663.352 494.6,715.342 461.07,753.202" fill="none" id="Emprestimo-Bem" style="stroke:#E7E7E7;stroke-width:1;"/><text fill="#FFFFFF" font-family="sans-serif" font-size="13" lengthAdjust="spacing" textLength="27.482" x="547.57" y="666.929">bem</text><text fill="#FFFFFF" font-family="sans-serif" font-size="13" lengthAdjust="spacing" textLength="21.567" x="550.8579" y="641.8314">0..*</text><text fill="#FFFFFF" font-family="sans-serif" font-size="13" lengthAdjust="spacing" textLength="7.436" x="459.8197" y="741.8781">1</text></g><!--link Emprestimo to Aluno--><g class="link" data-entity-1="Emprestimo" data-entity-2="Aluno" data-source-line="113" data-uid="lnk30" id="link_Emprestimo_Aluno"><path codeLine="113" d="M696.93,620.182 C716.26,653.282 738.62,691.572 757.97,724.702" fill="none" id="Emprestimo-Aluno" style="stroke:#E7E7E7;stroke-width:1;"/><text fill="#FFFFFF" font-family="sans-serif" font-size="13" lengthAdjust="spacing" textLength="34.58" x="723.85" y="666.929">aluno</text><text fill="#FFFFFF" font-family="sans-serif" font-size="13" lengthAdjust="spacing" textLength="21.567" x="679.0854" y="641.8314">0..*</text><text fill="#FFFFFF" font-family="sans-serif" font-size="13" lengthAdjust="spacing" textLength="7.436" x="746.3322" y="713.3316">1</text></g><!--link Ocorrencia to TipoOcorrencia--><g class="link" data-entity-1="Ocorrencia" data-entity-2="TipoOcorrencia" data-source-line="115" data-uid="lnk31" id="link_Ocorrencia_TipoOcorrencia"><path codeLine="115" d="M477.72,255.132 C468.02,320.902 449.57,445.892 440.83,505.132" fill="none" id="Ocorrencia-TipoOcorrencia" style="stroke:#E7E7E7;stroke-width:1;"/><text fill="#FFFFFF" font-family="sans-serif" font-size="13" lengthAdjust="spacing" textLength="23.907" x="455.29" y="423.519">tipo</text><text fill="#FFFFFF" font-family="sans-serif" font-size="13" lengthAdjust="spacing" textLength="21.567" x="454.2977" y="276.7216">0..*</text><text fill="#FFFFFF" font-family="sans-serif" font-size="13" lengthAdjust="spacing" textLength="7.436" x="434.1495" y="493.3993">1</text></g><!--link Ocorrencia to Emprestimo--><g class="link" data-entity-1="Ocorrencia" data-entity-2="Emprestimo" data-source-line="116" data-uid="lnk32" id="link_Ocorrencia_Emprestimo"><path codeLine="116" d="M505.7,255.132 C531.8,306.262 576.18,393.202 608.84,457.192" fill="none" id="Ocorrencia-Emprestimo" style="stroke:#E7E7E7;stroke-width:1;"/><text fill="#FFFFFF" font-family="sans-serif" font-size="13" lengthAdjust="spacing" textLength="74.4771" x="592.57" y="423.519">emprestimo</text><text fill="#FFFFFF" font-family="sans-serif" font-size="13" lengthAdjust="spacing" textLength="21.567" x="486.3873" y="276.7216">0..*</text><text fill="#FFFFFF" font-family="sans-serif" font-size="13" lengthAdjust="spacing" textLength="7.436" x="597.7434" y="445.8123">1</text></g><!--SRC=[fLMnRjmm3DtlAmHFbpONjAk13iqXxPIsGpiRF9bsbDYI8SdEKEJVIyaNMvBFTq7ZIIOVdyWdYkg0Fq6DBEl0Qj4gALJ6_cuOVRm1OzXlqQbRR8ysztqiqN0jEAYS6QjdErWnA9QpWrADjxvi0gBl6lfl6chHY19AV3FX6j-TiL2glP86zG0K_6x6Uz0SxbM9JSHbHDr0mlDV_8cCi-Bl8tUqkzrqK3dBB2spq9TgJvWwDaNmfRGKWAan2Wcr8t0x_sORohDxRJEkDCODzeVuGbb4cJCXxMmWb2qQLGkPin8i1b1JcBv3tHD5e8ltEPk45XCDAw69xOJ3xtB2ZYs89h6vVIrKLSvkQKy46Rc0qpdX2PzBldXKGcAPLBBRpIZ-WFofw4YQPwNBhORdwUSgBTAWNKKEIfGpiYParJUDBt5xbHJalEP1QNlQxJKedA9RqnyUaTjhrg8nTABNhDAgBJpYomybCTmvkV-gxyA3ZiMEiBzGjy8OeUHwm2WMjTX97jzLsQURcm-PQy_ZQip1TpyjJ7O66gH0U5TxqKscO-H8To4qYehk0aeZP39kzz1slRaqVgHQbMxVQwFU4V-rwMKK7sCdKw7HT5GJ39XU3zvLRxX4hHj_l5_aPh71YXffaT-OMQ3sv-nLBfAP-rMsZlIwEA1Rn4C9suwgiJICbs_VJvfO6YKNSE5zUGa2LuB0Gg4cLphDvYnoTZUj5zopQy4TCiJStbtYe9gUaYu8DWWQOUTXgVU0RUxcVV0YEQ7pKU-W4FzIp5FyU7v1ul7H75yjei_E0yTp9QZVDnjf0wrZT79wqRku6XJidKUDGGtp3m00]--></g></svg>