<svg xmlns="http://www.w3.org/2000/svg" xmlns:xlink="http://www.w3.org/1999/xlink" contentStyleType="text/css" data-diagram-type="SEQUENCE" height="485px" preserveAspectRatio="none" style="width:555px;height:485px;background:#1B1B1B;" version="1.1" viewBox="0 0 555 485" width="555px" zoomAndPan="magnify"><defs/><g><rect fill="#1B1B1B" height="485" style="stroke:none;stroke-width:1;" width="555" x="0" y="0"/><g><title>glpi-agent</title><rect fill="#000000" fill-opacity="0.00000" height="318.3541" width="8" x="37.5089" y="84.0679"/><line style="stroke:#E7E7E7;stroke-width:0.5;stroke-dasharray:5.0,5.0;" x1="41" x2="41" y1="84.0679" y2="402.4221"/></g><g><title>Inventario end-point</title><rect fill="#000000" fill-opacity="0.00000" height="318.3541" width="8" x="201.909" y="84.0679"/><line style="stroke:#E7E7E7;stroke-width:0.5;stroke-dasharray:5.0,5.0;" x1="205.1423" x2="205.1423" y1="84.0679" y2="402.4221"/></g><g><title>Software</title><rect fill="#000000" fill-opacity="0.00000" height="318.3541" width="8" x="419.0111" y="84.0679"/><line style="stroke:#E7E7E7;stroke-width:0.5;stroke-dasharray:5.0,5.0;" x1="422.7303" x2="422.7303" y1="84.0679" y2="402.4221"/></g><g><title>Computador</title><rect fill="#000000" fill-opacity="0.00000" height="318.3541" width="8" x="506.0119" y="84.0679"/><line style="stroke:#E7E7E7;stroke-width:0.5;stroke-dasharray:5.0,5.0;" x1="509.292" x2="509.292" y1="84.0679" y2="402.4221"/></g><g class="participant participant-head" data-participant="comp"><text fill="#FFFFFF" font-family="sans-serif" font-size="14" lengthAdjust="spacing" textLength="67.0177" x="5" y="79.9659">glpi-agent</text><ellipse cx="41.5089" cy="13.5" fill="#222222" rx="8" ry="8" style="stroke:#E7E7E7;stroke-width:0.5;"/><path d="M41.5089,21.5 L41.5089,48.5 M28.5089,29.5 L54.5089,29.5 M41.5089,48.5 L28.5089,63.5 M41.5089,48.5 L54.5089,63.5" fill="none" style="stroke:#E7E7E7;stroke-width:0.5;"/></g><g class="participant participant-tail" data-participant="comp"><text fill="#FFFFFF" font-family="sans-serif" font-size="14" lengthAdjust="spacing" textLength="67.0177" x="5" y="416.388">glpi-agent</text><ellipse cx="41.5089" cy="428.99" fill="#222222" rx="8" ry="8" style="stroke:#E7E7E7;stroke-width:0.5;"/><path d="M41.5089,436.99 L41.5089,463.99 M28.5089,444.99 L54.5089,444.99 M41.5089,463.99 L28.5089,478.99 M41.5089,463.99 L54.5089,478.99" fill="none" style="stroke:#E7E7E7;stroke-width:0.5;"/></g><g class="participant participant-head" data-participant="endpoint"><text fill="#FFFFFF" font-family="sans-serif" font-size="14" lengthAdjust="spacing" textLength="135.5335" x="135.1423" y="79.9659">Inventario end-point</text><path d="M185.409,37 L185.409,61 M185.409,49 L202.409,49" fill="none" style="stroke:#E7E7E7;stroke-width:0.5;"/><ellipse cx="214.409" cy="49" fill="#222222" rx="12" ry="12" style="stroke:#E7E7E7;stroke-width:0.5;"/></g><g class="participant participant-tail" data-participant="endpoint"><text fill="#FFFFFF" font-family="sans-serif" font-size="14" lengthAdjust="spacing" textLength="135.5335" x="135.1423" y="416.388">Inventario end-point</text><path d="M185.409,424.49 L185.409,448.49 M185.409,436.49 L202.409,436.49" fill="none" style="stroke:#E7E7E7;stroke-width:0.5;"/><ellipse cx="214.409" cy="436.49" fill="#222222" rx="12" ry="12" style="stroke:#E7E7E7;stroke-width:0.5;"/></g><g class="participant participant-head" data-participant="software"><text fill="#FFFFFF" font-family="sans-serif" font-size="14" lengthAdjust="spacing" textLength="58.5618" x="390.7303" y="79.9659">Software</text><ellipse cx="423.0111" cy="49" fill="#222222" rx="12" ry="12" style="stroke:#E7E7E7;stroke-width:0.5;"/><line style="stroke:#E7E7E7;stroke-width:0.5;" x1="411.0111" x2="435.0111" y1="63" y2="63"/></g><g class="participant participant-tail" data-participant="software"><text fill="#FFFFFF" font-family="sans-serif" font-size="14" lengthAdjust="spacing" textLength="58.5618" x="390.7303" y="416.388">Software</text><ellipse cx="423.0111" cy="436.49" fill="#222222" rx="12" ry="12" style="stroke:#E7E7E7;stroke-width:0.5;"/><line style="stroke:#E7E7E7;stroke-width:0.5;" x1="411.0111" x2="435.0111" y1="450.49" y2="450.49"/></g><g class="participant participant-head" data-participant="computador"><text fill="#FFFFFF" font-family="sans-serif" font-size="14" lengthAdjust="spacing" textLength="83.4397" x="465.292" y="79.9659">Computador</text><ellipse cx="510.0119" cy="49" fill="#222222" rx="12" ry="12" style="stroke:#E7E7E7;stroke-width:0.5;"/><line style="stroke:#E7E7E7;stroke-width:0.5;" x1="498.0119" x2="522.0119" y1="63" y2="63"/></g><g class="participant participant-tail" data-participant="computador"><text fill="#FFFFFF" font-family="sans-serif" font-size="14" lengthAdjust="spacing" textLength="83.4397" x="465.292" y="416.388">Computador</text><ellipse cx="510.0119" cy="436.49" fill="#222222" rx="12" ry="12" style="stroke:#E7E7E7;stroke-width:0.5;"/><line style="stroke:#E7E7E7;stroke-width:0.5;" x1="498.0119" x2="522.0119" y1="450.49" y2="450.49"/></g><g class="message" data-participant-1="comp" data-participant-2="endpoint"><polygon fill="#E7E7E7" points="193.909,113.7739,203.909,117.7739,193.909,121.7739,197.909,117.7739" style="stroke:#E7E7E7;stroke-width:1;"/><line style="stroke:#E7E7E7;stroke-width:1;" x1="41.5089" x2="199.909" y1="117.7739" y2="117.7739"/><text fill="#FFFFFF" font-family="sans-serif" font-size="13" lengthAdjust="spacing" textLength="140.4001" x="48.5089" y="111.9649">post XML de inventario</text></g><g class="message" data-participant-1="endpoint" data-participant-2="endpoint"><line style="stroke:#E7E7E7;stroke-width:1;" x1="205.909" x2="247.909" y1="149.4799" y2="149.4799"/><line style="stroke:#E7E7E7;stroke-width:1;" x1="247.909" x2="247.909" y1="149.4799" y2="162.4799"/><line style="stroke:#E7E7E7;stroke-width:1;" x1="206.909" x2="247.909" y1="162.4799" y2="162.4799"/><polygon fill="#E7E7E7" points="216.909,158.4799,206.909,162.4799,216.909,166.4799,212.909,162.4799" style="stroke:#E7E7E7;stroke-width:1;"/><text fill="#FFFFFF" font-family="sans-serif" font-size="13" lengthAdjust="spacing" textLength="76.6481" x="212.909" y="143.6709">valida dados</text></g><g class="message" data-participant-1="endpoint" data-participant-2="software"><polygon fill="#E7E7E7" points="411.0111,190.186,421.0111,194.186,411.0111,198.186,415.0111,194.186" style="stroke:#E7E7E7;stroke-width:1;"/><line style="stroke:#E7E7E7;stroke-width:1;" x1="205.909" x2="417.0111" y1="194.186" y2="194.186"/><text fill="#FFFFFF" font-family="sans-serif" font-size="13" lengthAdjust="spacing" textLength="193.1021" x="212.909" y="188.377">cadastra ou recupera softwares</text></g><g class="message" data-participant-1="software" data-participant-2="endpoint"><polygon fill="#E7E7E7" points="216.909,221.892,206.909,225.892,216.909,229.892,212.909,225.892" style="stroke:#E7E7E7;stroke-width:1;"/><line style="stroke:#E7E7E7;stroke-width:1;stroke-dasharray:2.0,2.0;" x1="210.909" x2="422.0111" y1="225.892" y2="225.892"/><text fill="#FFFFFF" font-family="sans-serif" font-size="13" lengthAdjust="spacing" textLength="85.5271" x="222.909" y="220.083">listaSoftwares</text></g><g class="message" data-participant-1="endpoint" data-participant-2="computador"><polygon fill="#E7E7E7" points="498.0119,253.598,508.0119,257.598,498.0119,261.598,502.0119,257.598" style="stroke:#E7E7E7;stroke-width:1;"/><line style="stroke:#E7E7E7;stroke-width:1;" x1="205.909" x2="504.0119" y1="257.598" y2="257.598"/><text fill="#FFFFFF" font-family="sans-serif" font-size="13" lengthAdjust="spacing" textLength="208.9102" x="212.909" y="251.789">cadsatra ou recupera computador</text></g><g class="message" data-participant-1="computador" data-participant-2="endpoint"><polygon fill="#E7E7E7" points="216.909,285.304,206.909,289.304,216.909,293.304,212.909,289.304" style="stroke:#E7E7E7;stroke-width:1;"/><line style="stroke:#E7E7E7;stroke-width:1;stroke-dasharray:2.0,2.0;" x1="210.909" x2="509.0119" y1="289.304" y2="289.304"/><text fill="#FFFFFF" font-family="sans-serif" font-size="13" lengthAdjust="spacing" textLength="75.5041" x="222.909" y="283.495">computador</text></g><g class="message" data-participant-1="endpoint" data-participant-2="computador"><polygon fill="#E7E7E7" points="498.0119,317.01,508.0119,321.01,498.0119,325.01,502.0119,321.01" style="stroke:#E7E7E7;stroke-width:1;"/><line style="stroke:#E7E7E7;stroke-width:1;" x1="205.909" x2="504.0119" y1="321.01" y2="321.01"/><text fill="#FFFFFF" font-family="sans-serif" font-size="13" lengthAdjust="spacing" textLength="203.4112" x="212.909" y="315.201">vincula softwares ao computador</text></g><g class="message" data-participant-1="computador" data-participant-2="endpoint"><polygon fill="#E7E7E7" points="216.909,348.716,206.909,352.716,216.909,356.716,212.909,352.716" style="stroke:#E7E7E7;stroke-width:1;"/><line style="stroke:#E7E7E7;stroke-width:1;stroke-dasharray:2.0,2.0;" x1="210.909" x2="509.0119" y1="352.716" y2="352.716"/><text fill="#FFFFFF" font-family="sans-serif" font-size="13" lengthAdjust="spacing" textLength="48.152" x="222.909" y="346.907">sucesso</text></g><g class="message" data-participant-1="endpoint" data-participant-2="comp"><polygon fill="#E7E7E7" points="52.5089,380.4221,42.5089,384.4221,52.5089,388.4221,48.5089,384.4221" style="stroke:#E7E7E7;stroke-width:1;"/><line style="stroke:#E7E7E7;stroke-width:1;stroke-dasharray:2.0,2.0;" x1="46.5089" x2="204.909" y1="384.4221" y2="384.4221"/><text fill="#FFFFFF" font-family="sans-serif" font-size="13" lengthAdjust="spacing" textLength="53.001" x="58.5089" y="378.6131">resposta</text></g><!--SRC=[TP2nJWGn34JxVCLe-_q12Xeg9AYkeJL9E4LQuYXs5jtVdvVBBZa4dUsPl75CNhbYEYybpNIEMIUGmFDdSU_SSg1wmVISLrEe9aRCOIwSki-wxyQPdFI24t_e5zMuQTBhNNioPbCA5jSJRfrpMutvyQ3X0OL5yVRwWX2HZdHtEExTAoqf48BXvCwpxs0UJu54Au4RQlIjHAjtNLoDsch6aaJfT4n7ri_6DvhGRzhmfuuR9l-YrfHzMuPTGFm7IfgF8kC9EiWGzcWx65q1]--></g></svg>