<svg xmlns="http://www.w3.org/2000/svg" xmlns:xlink="http://www.w3.org/1999/xlink" contentStyleType="text/css" data-diagram-type="DESCRIPTION" height="2023px" preserveAspectRatio="none" style="width:879px;height:2023px;background:#1B1B1B;" version="1.1" viewBox="0 0 879 2023" width="879px" zoomAndPan="magnify"><defs/><g><rect fill="#1B1B1B" height="2023" style="stroke:none;stroke-width:1;" width="879" x="0" y="0"/><!--cluster Sistema web--><g class="cluster" data-entity="Sistema web" data-source-line="3" data-uid="ent0002" id="cluster_Sistema web"><path d="M8.5,101.03 L97.7277,101.03 A3.75,3.75 0 0 1 100.2277,103.53 L107.2277,126.0979 L869.59,126.0979 A2.5,2.5 0 0 1 872.09,128.5979 L872.09,2013.53 A2.5,2.5 0 0 1 869.59,2016.03 L8.5,2016.03 A2.5,2.5 0 0 1 6,2013.53 L6,103.53 A2.5,2.5 0 0 1 8.5,101.03" fill="none" style="stroke:#FFFFFF;stroke-width:1.5;"/><line style="stroke:#FFFFFF;stroke-width:1.5;" x1="6" x2="107.2277" y1="126.0979" y2="126.0979"/><text fill="#FFFFFF" font-family="sans-serif" font-size="14" font-weight="bold" lengthAdjust="spacing" textLength="88.2277" x="10" y="117.9959">Sistema web</text></g><!--cluster autenticacao e Perfil--><g class="cluster" data-entity="autenticacao e Perfil" data-source-line="9" data-uid="ent0006" id="cluster_autenticacao e Perfil"><rect fill="none" height="230" rx="2.5" ry="2.5" style="stroke:#E7E7E7;stroke-width:1;" width="195.73" x="220.92" y="147.03"/><text fill="#FFFFFF" font-family="sans-serif" font-size="14" font-weight="bold" lengthAdjust="spacing" textLength="143.9755" x="246.7973" y="163.9959">autenticacao e Perfil</text></g><!--cluster Gestao de Empr?stimos--><g class="cluster" data-entity="Gestao de Empr&#233;stimos" data-source-line="17" data-uid="ent0014" id="cluster_Gestao de Empr&#233;stimos"><rect fill="none" height="357" rx="2.5" ry="2.5" style="stroke:#E7E7E7;stroke-width:1;" width="677.04" x="171.05" y="714.03"/><text fill="#FFFFFF" font-family="sans-serif" font-size="14" font-weight="bold" lengthAdjust="spacing" textLength="164.8914" x="427.1243" y="730.9959">Gestao de Empr&#233;stimos</text></g><!--cluster Gestao de Ocorrencias--><g class="cluster" data-entity="Gestao de Ocorrencias" data-source-line="28" data-uid="ent0029" id="cluster_Gestao de Ocorrencias"><rect fill="none" height="289" rx="2.5" ry="2.5" style="stroke:#E7E7E7;stroke-width:1;" width="664.05" x="169.99" y="401.03"/><text fill="#FFFFFF" font-family="sans-serif" font-size="14" font-weight="bold" lengthAdjust="spacing" textLength="157.0654" x="423.4823" y="417.9959">Gestao de Ocorrencias</text></g><!--cluster Cadastros auxiliares--><g class="cluster" data-entity="Cadastros auxiliares" data-source-line="36" data-uid="ent0038" id="cluster_Cadastros auxiliares"><rect fill="none" height="315" rx="2.5" ry="2.5" style="stroke:#E7E7E7;stroke-width:1;" width="232.01" x="202.78" y="1095.03"/><text fill="#FFFFFF" font-family="sans-serif" font-size="14" font-weight="bold" lengthAdjust="spacing" textLength="141.5395" x="248.0153" y="1111.9959">Cadastros auxiliares</text></g><!--cluster Administra??o--><g class="cluster" data-entity="Administra&#231;&#227;o" data-source-line="45" data-uid="ent0047" id="cluster_Administra&#231;&#227;o"><rect fill="none" height="558" rx="2.5" ry="2.5" style="stroke:#E7E7E7;stroke-width:1;" width="278.74" x="179.41" y="1434.03"/><text fill="#FFFFFF" font-family="sans-serif" font-size="14" font-weight="bold" lengthAdjust="spacing" textLength="101.7656" x="267.8972" y="1450.9959">Administra&#231;&#227;o</text></g><!--entity user--><g class="entity" data-entity="user" data-source-line="4" data-uid="ent0003" id="entity_user"><ellipse cx="69.3849" cy="275" fill="#313139" rx="8" ry="8" style="stroke:#E7E7E7;stroke-width:0.5;"/><path d="M69.3849,283 L69.3849,310 M56.3849,291 L82.3849,291 M69.3849,310 L56.3849,325 M69.3849,310 L82.3849,325" fill="none" style="stroke:#E7E7E7;stroke-width:0.5;"/><text fill="#FFFFFF" font-family="sans-serif" font-size="14" lengthAdjust="spacing" textLength="51.3098" x="43.73" y="341.4659">Usu&#225;rio</text></g><!--entity membro--><g class="entity" data-entity="membro" data-source-line="5" data-uid="ent0004" id="entity_membro"><ellipse cx="69.3929" cy="884.5279" fill="#313139" rx="8" ry="8" style="stroke:#E7E7E7;stroke-width:0.5;"/><path d="M69.3929,892.5279 L69.3929,919.5279 M56.3929,900.5279 L82.3929,900.5279 M69.3929,919.5279 L56.3929,934.5279 M69.3929,919.5279 L82.3929,934.5279" fill="none" style="stroke:#E7E7E7;stroke-width:0.5;"/><text fill="#FFFFFF" font-family="sans-serif" font-size="14" lengthAdjust="spacing" textLength="56.5458" x="41.12" y="950.9939">Membro</text><text fill="#FFFFFF" font-family="sans-serif" font-size="14" font-style="italic" lengthAdjust="spacing" textLength="39.8579" x="49.464" y="871.9259">&#171;Role&#187;</text></g><!--entity admin--><g class="entity" data-entity="admin" data-source-line="6" data-uid="ent0005" id="entity_admin"><ellipse cx="69.3898" cy="1669.5279" fill="#313139" rx="8" ry="8" style="stroke:#E7E7E7;stroke-width:0.5;"/><path d="M69.3898,1677.5279 L69.3898,1704.5279 M56.3898,1685.5279 L82.3898,1685.5279 M69.3898,1704.5279 L56.3898,1719.5279 M69.3898,1704.5279 L82.3898,1719.5279" fill="none" style="stroke:#E7E7E7;stroke-width:0.5;"/><text fill="#FFFFFF" font-family="sans-serif" font-size="14" lengthAdjust="spacing" textLength="94.7797" x="22" y="1735.9939">Administrador</text><text fill="#FFFFFF" font-family="sans-serif" font-size="14" font-style="italic" lengthAdjust="spacing" textLength="39.8579" x="49.4609" y="1656.9259">&#171;Role&#187;</text></g><g class="entity" data-entity="Fazer login" data-source-line="10" data-uid="ent0007" id="entity_Fazer login"><ellipse cx="318.7784" cy="271.0317" fill="#313139" rx="64.6184" ry="16.9917" style="stroke:#E7E7E7;stroke-width:0.5;"/><text fill="#FFFFFF" font-family="sans-serif" font-size="14" lengthAdjust="spacing" textLength="71.9737" x="279.7915" y="275.7647">Fazer login</text></g><g class="entity" data-entity="Fazer log-off" data-source-line="11" data-uid="ent0009" id="entity_Fazer log-off"><ellipse cx="318.7845" cy="202.0291" fill="#313139" rx="72.4445" ry="17.0391" style="stroke:#E7E7E7;stroke-width:0.5;"/><text fill="#FFFFFF" font-family="sans-serif" font-size="14" lengthAdjust="spacing" textLength="82.3197" x="274.6247" y="206.7621">Fazer log-off</text></g><g class="entity" data-entity="Manter cadastro" data-source-line="12" data-uid="ent0011" id="entity_Manter cadastro"><ellipse cx="318.7848" cy="342.033" fill="#313139" rx="81.8648" ry="18.773" style="stroke:#E7E7E7;stroke-width:0.5;"/><text fill="#FFFFFF" font-family="sans-serif" font-size="14" lengthAdjust="spacing" textLength="108.6256" x="261.472" y="346.7659">Manter cadastro</text></g><g class="entity" data-entity="empdetail" data-source-line="18" data-uid="ent0015" id="entity_empdetail"><ellipse cx="318.7769" cy="940.0254" fill="#313139" rx="131.7269" ry="28.7454" style="stroke:#E7E7E7;stroke-width:0.5;"/><text fill="#FFFFFF" font-family="sans-serif" font-size="14" lengthAdjust="spacing" textLength="227.1491" x="205.0636" y="943.527">Visualizar detalhes do empr&#233;stimo</text></g><g class="entity" data-entity="Editar empr&#233;stimo" data-source-line="20" data-uid="ent0017" id="entity_Editar empr&#233;stimo"><ellipse cx="318.7773" cy="856.0315" fill="#313139" rx="87.0573" ry="19.8115" style="stroke:#E7E7E7;stroke-width:0.5;"/><text fill="#FFFFFF" font-family="sans-serif" font-size="14" lengthAdjust="spacing" textLength="122.5415" x="254.5066" y="860.7644">Editar empr&#233;stimo</text></g><g class="entity" data-entity="Realizar empr&#233;stimo" data-source-line="21" data-uid="ent0019" id="entity_Realizar empr&#233;stimo"><ellipse cx="318.776" cy="780.0312" fill="#313139" rx="92.206" ry="20.8412" style="stroke:#E7E7E7;stroke-width:0.5;"/><text fill="#FFFFFF" font-family="sans-serif" font-size="14" lengthAdjust="spacing" textLength="135.7435" x="247.9042" y="784.7642">Realizar empr&#233;stimo</text></g><g class="entity" data-entity="Gerar termo de responsabilidade" data-source-line="22" data-uid="ent0021" id="entity_Gerar termo de responsabilidade"><ellipse cx="704.4441" cy="1027.0308" fill="#313139" rx="127.6541" ry="27.9308" style="stroke:#E7E7E7;stroke-width:0.5;"/><text fill="#FFFFFF" font-family="sans-serif" font-size="14" lengthAdjust="spacing" textLength="218.3152" x="594.4352" y="1030.8741">Gerar termo de responsabilidade</text></g><g class="entity" data-entity="Gerar termo de devolu&#231;&#227;o" data-source-line="23" data-uid="ent0023" id="entity_Gerar termo de devolu&#231;&#227;o"><ellipse cx="704.4363" cy="940.0313" fill="#313139" rx="107.4563" ry="23.8913" style="stroke:#E7E7E7;stroke-width:0.5;"/><text fill="#FFFFFF" font-family="sans-serif" font-size="14" lengthAdjust="spacing" textLength="172.6193" x="615.1266" y="944.7642">Gerar termo de devolu&#231;&#227;o</text></g><g class="entity" data-entity="Alterar estado do empr&#233;stimo" data-source-line="24" data-uid="ent0025" id="entity_Alterar estado do empr&#233;stimo"><ellipse cx="704.4428" cy="855.0346" fill="#313139" rx="118.3728" ry="26.0746" style="stroke:#E7E7E7;stroke-width:0.5;"/><text fill="#FFFFFF" font-family="sans-serif" font-size="14" lengthAdjust="spacing" textLength="197.7213" x="602.8771" y="859.6566">Alterar estado do empr&#233;stimo</text></g><g class="entity" data-entity="Registrar ocorrencia" data-source-line="25" data-uid="ent0027" id="entity_Registrar ocorrencia"><ellipse cx="704.4375" cy="773.0315" fill="#313139" rx="91.3575" ry="20.6715" style="stroke:#E7E7E7;stroke-width:0.5;"/><text fill="#FFFFFF" font-family="sans-serif" font-size="14" lengthAdjust="spacing" textLength="133.6015" x="634.6368" y="777.7645">Registrar ocorrencia</text></g><g class="entity" data-entity="occdetail" data-source-line="29" data-uid="ent0030" id="entity_occdetail"><ellipse cx="318.7754" cy="646.0251" fill="#313139" rx="126.7254" ry="27.7451" style="stroke:#E7E7E7;stroke-width:0.5;"/><text fill="#FFFFFF" font-family="sans-serif" font-size="14" lengthAdjust="spacing" textLength="216.2852" x="209.6112" y="649.9463">Visualizar detalhes da ocorrencia</text></g><g class="entity" data-entity="Visualizar lista de ocorr&#234;ncias" data-source-line="30" data-uid="ent0031" id="entity_Visualizar lista de ocorr&#234;ncias"><ellipse cx="318.7821" cy="558.0304" fill="#313139" rx="116.5521" ry="25.7104" style="stroke:#E7E7E7;stroke-width:0.5;"/><text fill="#FFFFFF" font-family="sans-serif" font-size="14" lengthAdjust="spacing" textLength="193.5913" x="218.9864" y="562.7634">Visualizar lista de ocorr&#234;ncias</text></g><g class="entity" data-entity="Receber notifica&#231;&#227;o de ocorr&#234;ncias" data-source-line="32" data-uid="ent0034" id="entity_Receber notifica&#231;&#227;o de ocorr&#234;ncias"><ellipse cx="318.777" cy="468.0274" fill="#313139" rx="132.787" ry="28.9574" style="stroke:#E7E7E7;stroke-width:0.5;"/><text fill="#FFFFFF" font-family="sans-serif" font-size="14" lengthAdjust="spacing" textLength="229.4311" x="204.0614" y="471.4594">Receber notifica&#231;&#227;o de ocorr&#234;ncias</text></g><g class="entity" data-entity="Alterar estado da ocorrencia" data-source-line="33" data-uid="ent0036" id="entity_Alterar estado da ocorrencia"><ellipse cx="704.4447" cy="639.0309" fill="#313139" rx="113.6047" ry="25.1209" style="stroke:#E7E7E7;stroke-width:0.5;"/><text fill="#FFFFFF" font-family="sans-serif" font-size="14" lengthAdjust="spacing" textLength="186.8573" x="608.016" y="643.7639">Alterar estado da ocorrencia</text></g><g class="entity" data-entity="Manter bens" data-source-line="37" data-uid="ent0039" id="entity_Manter bens"><ellipse cx="318.7779" cy="1150.0296" fill="#313139" rx="73.2479" ry="17.0496" style="stroke:#E7E7E7;stroke-width:0.5;"/><text fill="#FFFFFF" font-family="sans-serif" font-size="14" lengthAdjust="spacing" textLength="83.4397" x="274.0581" y="1154.7625">Manter bens</text></g><g class="entity" data-entity="Manter tipos de bem" data-source-line="38" data-uid="ent0041" id="entity_Manter tipos de bem"><ellipse cx="318.7792" cy="1373.0338" fill="#313139" rx="92.8692" ry="20.9738" style="stroke:#E7E7E7;stroke-width:0.5;"/><text fill="#FFFFFF" font-family="sans-serif" font-size="14" lengthAdjust="spacing" textLength="137.4095" x="247.0745" y="1377.7668">Manter tipos de bem</text></g><g class="entity" data-entity="Manter alunos" data-source-line="39" data-uid="ent0043" id="entity_Manter alunos"><ellipse cx="318.7799" cy="1299.028" fill="#313139" rx="77.2399" ry="17.848" style="stroke:#E7E7E7;stroke-width:0.5;"/><text fill="#FFFFFF" font-family="sans-serif" font-size="14" lengthAdjust="spacing" textLength="95.5216" x="268.0191" y="1303.7609">Manter alunos</text></g><g class="entity" data-entity="Manter marcas/modelo" data-source-line="40" data-uid="ent0045" id="entity_Manter marcas/modelo"><ellipse cx="318.7758" cy="1224.0312" fill="#313139" rx="100.0058" ry="22.4012" style="stroke:#E7E7E7;stroke-width:0.5;"/><text fill="#FFFFFF" font-family="sans-serif" font-size="14" lengthAdjust="spacing" textLength="154.9374" x="238.307" y="1228.7641">Manter marcas/modelo</text></g><g class="entity" data-entity="Manter usu&#225;rios" data-source-line="47" data-uid="ent0049" id="entity_Manter usu&#225;rios"><ellipse cx="318.7813" cy="1957.0283" fill="#313139" rx="81.6413" ry="18.7283" style="stroke:#E7E7E7;stroke-width:0.5;"/><text fill="#FFFFFF" font-family="sans-serif" font-size="14" lengthAdjust="spacing" textLength="108.0096" x="261.7765" y="1961.7612">Manter usu&#225;rios</text></g><g class="entity" data-entity="Manter roles" data-source-line="48" data-uid="ent0051" id="entity_Manter roles"><ellipse cx="318.7799" cy="1886.028" fill="#313139" rx="73.4399" ry="17.088" style="stroke:#E7E7E7;stroke-width:0.5;"/><text fill="#FFFFFF" font-family="sans-serif" font-size="14" lengthAdjust="spacing" textLength="84.0417" x="273.7591" y="1890.7609">Manter roles</text></g><g class="entity" data-entity="Manter tipos de ocorrencia" data-source-line="49" data-uid="ent0053" id="entity_Manter tipos de ocorrencia"><ellipse cx="318.7771" cy="1810.0334" fill="#313139" rx="109.6671" ry="24.3334" style="stroke:#E7E7E7;stroke-width:0.5;"/><text fill="#FFFFFF" font-family="sans-serif" font-size="14" lengthAdjust="spacing" textLength="177.7713" x="226.8915" y="1814.7664">Manter tipos de ocorrencia</text></g><g class="entity" data-entity="Manter cursos" data-source-line="50" data-uid="ent0055" id="entity_Manter cursos"><ellipse cx="318.7796" cy="1733.0259" fill="#313139" rx="76.9296" ry="17.7859" style="stroke:#E7E7E7;stroke-width:0.5;"/><text fill="#FFFFFF" font-family="sans-serif" font-size="14" lengthAdjust="spacing" textLength="94.6116" x="268.4737" y="1737.7589">Manter cursos</text></g><g class="entity" data-entity="Manter campi" data-source-line="51" data-uid="ent0057" id="entity_Manter campi"><ellipse cx="318.777" cy="1663.0334" fill="#313139" rx="75.867" ry="17.5734" style="stroke:#E7E7E7;stroke-width:0.5;"/><text fill="#FFFFFF" font-family="sans-serif" font-size="14" lengthAdjust="spacing" textLength="91.4617" x="270.0462" y="1667.7664">Manter campi</text></g><g class="entity" data-entity="Manter graus de fragilidade" data-source-line="52" data-uid="ent0059" id="entity_Manter graus de fragilidade"><ellipse cx="318.779" cy="1586.0278" fill="#313139" rx="112.289" ry="24.8578" style="stroke:#E7E7E7;stroke-width:0.5;"/><text fill="#FFFFFF" font-family="sans-serif" font-size="14" lengthAdjust="spacing" textLength="183.8333" x="223.8623" y="1590.7608">Manter graus de fragilidade</text></g><g class="entity" data-entity="Manter estados de conserva&#231;&#227;o" data-source-line="53" data-uid="ent0061" id="entity_Manter estados de conserva&#231;&#227;o"><ellipse cx="318.7781" cy="1499.0336" fill="#313139" rx="123.3681" ry="27.0736" style="stroke:#E7E7E7;stroke-width:0.5;"/><text fill="#FFFFFF" font-family="sans-serif" font-size="14" lengthAdjust="spacing" textLength="208.8932" x="212.6679" y="1503.2365">Manter estados de conserva&#231;&#227;o</text></g><!--entity aluno--><g class="entity" data-entity="aluno" data-source-line="57" data-uid="ent0063" id="entity_aluno"><ellipse cx="69.3859" cy="14" fill="#313139" rx="8" ry="8" style="stroke:#E7E7E7;stroke-width:0.5;"/><path d="M69.3859,22 L69.3859,49 M56.3859,30 L82.3859,30 M69.3859,49 L56.3859,64 M69.3859,49 L82.3859,64" fill="none" style="stroke:#E7E7E7;stroke-width:0.5;"/><text fill="#FFFFFF" font-family="sans-serif" font-size="14" lengthAdjust="spacing" textLength="38.3318" x="50.22" y="80.4659">Aluno</text></g><g class="entity" data-entity="Receber e-mail de fim de empr&#233;stimo" data-source-line="58" data-uid="ent0064" id="entity_Receber e-mail de fim de empr&#233;stimo"><ellipse cx="318.7822" cy="45.0304" fill="#313139" rx="141.0022" ry="30.6004" style="stroke:#E7E7E7;stroke-width:0.5;"/><text fill="#FFFFFF" font-family="sans-serif" font-size="14" lengthAdjust="spacing" textLength="247.015" x="195.2747" y="48.4624">Receber e-mail de fim de empr&#233;stimo</text></g><!--link user to Fazer login--><g class="link" data-entity-1="user" data-entity-2="Fazer login" data-source-line="10" data-uid="lnk8" id="link_user_Fazer login"><path d="M95.47,302.48 C134.04,297.02 202.9792,287.2709 255.1192,279.8909" fill="none" id="user-to-Fazer login" style="stroke:#E7E7E7;stroke-width:1;"/><polygon fill="#E7E7E7" points="261.06,279.05,251.5882,276.3508,256.1093,279.7507,252.7094,284.2718,261.06,279.05" style="stroke:#E7E7E7;stroke-width:1;"/></g><!--link user to Fazer log-off--><g class="link" data-entity-1="user" data-entity-2="Fazer log-off" data-source-line="11" data-uid="lnk10" id="link_user_Fazer log-off"><path d="M95.32,282.59 C112.74,267.44 137.24,248.48 161.99,237.03 C190.8,223.7 219.0952,216.3645 248.1052,211.1345" fill="none" id="user-to-Fazer log-off" style="stroke:#E7E7E7;stroke-width:1;"/><polygon fill="#E7E7E7" points="254.01,210.07,244.4431,207.7303,249.0893,210.9571,245.8625,215.6033,254.01,210.07" style="stroke:#E7E7E7;stroke-width:1;"/></g><!--link user to Manter cadastro--><g class="link" data-entity-1="user" data-entity-2="Manter cadastro" data-source-line="12" data-uid="lnk12" id="link_user_Manter cadastro"><path d="M95.47,309.68 C131.1,314.86 191.7526,323.6857 242.7926,331.1157" fill="none" id="user-to-Manter cadastro" style="stroke:#E7E7E7;stroke-width:1;"/><polygon fill="#E7E7E7" points="248.73,331.98,240.4001,326.7252,243.7822,331.2597,239.2477,334.6418,248.73,331.98" style="stroke:#E7E7E7;stroke-width:1;"/></g><!--link membro to user--><g class="link" data-entity-1="membro" data-entity-2="user" data-source-line="16" data-uid="lnk13" id="link_membro_user"><path d="M69.39,856.52 C69.39,686.28 69.39,534.05 69.39,363.81" fill="none" id="membro-to-user" style="stroke:#E7E7E7;stroke-width:1;"/><polygon fill="none" points="69.39,345.81,63.39,363.81,75.39,363.81,69.39,345.81" style="stroke:#E7E7E7;stroke-width:1;"/></g><!--link membro to empdetail--><g class="link" data-entity-1="membro" data-entity-2="empdetail" data-source-line="19" data-uid="lnk16" id="link_membro_empdetail"><path d="M97.81,909.8 C124.29,913.44 160.2359,918.3728 200.3859,923.8928" fill="none" id="membro-to-empdetail" style="stroke:#E7E7E7;stroke-width:1;"/><polygon fill="#E7E7E7" points="206.33,924.71,197.9587,919.5214,201.3766,924.029,196.8691,927.4469,206.33,924.71" style="stroke:#E7E7E7;stroke-width:1;"/></g><!--link membro to Editar empr?stimo--><g class="link" data-entity-1="membro" data-entity-2="Editar empr&#233;stimo" data-source-line="20" data-uid="lnk18" id="link_membro_Editar empr&#233;stimo"><path d="M97.81,900.49 C134.86,893 196.189,880.6088 246.599,870.4188" fill="none" id="membro-to-Editar empr&#233;stimo" style="stroke:#E7E7E7;stroke-width:1;"/><polygon fill="#E7E7E7" points="252.48,869.23,242.8659,867.0925,247.5791,870.2207,244.451,874.9339,252.48,869.23" style="stroke:#E7E7E7;stroke-width:1;"/></g><!--link membro to Realizar empr?stimo--><g class="link" data-entity-1="membro" data-entity-2="Realizar empr&#233;stimo" data-source-line="21" data-uid="lnk20" id="link_membro_Realizar empr&#233;stimo"><path d="M98.13,872.24 C114.85,853.96 137.58,832.44 161.99,819.03 C185.94,805.87 208.5265,798.3876 234.5165,792.5376" fill="none" id="membro-to-Realizar empr&#233;stimo" style="stroke:#E7E7E7;stroke-width:1;"/><polygon fill="#E7E7E7" points="240.37,791.22,230.7113,789.294,235.492,792.318,232.468,797.0987,240.37,791.22" style="stroke:#E7E7E7;stroke-width:1;"/></g><!--reverse link empdetail to Gerar termo de responsabilidade--><g class="link" data-entity-1="empdetail" data-entity-2="Gerar termo de responsabilidade" data-source-line="22" data-uid="lnk22" id="link_empdetail_Gerar termo de responsabilidade"><path d="M417.0414,962.0873 C478.5414,976.0373 553.38,993 614.38,1006.84" fill="none" id="empdetail-backto-Gerar termo de responsabilidade" style="stroke:#E7E7E7;stroke-width:1;stroke-dasharray:7.0,7.0;"/><polygon fill="#E7E7E7" points="411.19,960.76,419.0822,966.6518,416.0661,961.866,420.8519,958.85,411.19,960.76" style="stroke:#E7E7E7;stroke-width:1;"/><text fill="#FFFFFF" font-family="sans-serif" font-size="13" lengthAdjust="spacing" textLength="55.497" x="490.78" y="976.817">&#171;extend&#187;</text></g><!--reverse link empdetail to Gerar termo de devolu??o--><g class="link" data-entity-1="empdetail" data-entity-2="Gerar termo de devolu&#231;&#227;o" data-source-line="23" data-uid="lnk24" id="link_empdetail_Gerar termo de devolu&#231;&#227;o"><path d="M456.74,940.03 C504.28,940.03 551.38,940.03 596.59,940.03" fill="none" id="empdetail-backto-Gerar termo de devolu&#231;&#227;o" style="stroke:#E7E7E7;stroke-width:1;stroke-dasharray:7.0,7.0;"/><polygon fill="#E7E7E7" points="450.74,940.03,459.74,944.03,455.74,940.03,459.74,936.03,450.74,940.03" style="stroke:#E7E7E7;stroke-width:1;"/><text fill="#FFFFFF" font-family="sans-serif" font-size="13" lengthAdjust="spacing" textLength="55.497" x="490.78" y="935.927">&#171;extend&#187;</text></g><!--reverse link empdetail to Alterar estado do empr?stimo--><g class="link" data-entity-1="empdetail" data-entity-2="Alterar estado do empr&#233;stimo" data-source-line="24" data-uid="lnk26" id="link_empdetail_Alterar estado do empr&#233;stimo"><path d="M418.5081,918.153 C481.6081,904.183 558.51,887.14 619.6,873.61" fill="none" id="empdetail-backto-Alterar estado do empr&#233;stimo" style="stroke:#E7E7E7;stroke-width:1;stroke-dasharray:7.0,7.0;"/><polygon fill="#E7E7E7" points="412.65,919.45,422.3019,921.41,417.5318,918.3692,420.5726,913.5991,412.65,919.45" style="stroke:#E7E7E7;stroke-width:1;"/><text fill="#FFFFFF" font-family="sans-serif" font-size="13" lengthAdjust="spacing" textLength="55.497" x="490.78" y="885.817">&#171;extend&#187;</text></g><!--reverse link empdetail to Registrar ocorrencia--><g class="link" data-entity-1="empdetail" data-entity-2="Registrar ocorrencia" data-source-line="25" data-uid="lnk28" id="link_empdetail_Registrar ocorrencia"><path d="M417.9781,917.4936 C436.7681,910.8636 450.04,904.22 466.15,893.03 C480.09,883.35 477.04,874.24 489.78,863.03 C523.62,833.29 535.56,829.2 576.78,811.03 C597.27,802 620.52,794.34 641.46,788.31" fill="none" id="empdetail-backto-Registrar ocorrencia" style="stroke:#E7E7E7;stroke-width:1;stroke-dasharray:7.0,7.0;"/><polygon fill="#E7E7E7" points="412.32,919.49,422.1381,920.2674,417.0351,917.8263,419.4762,912.7233,412.32,919.49" style="stroke:#E7E7E7;stroke-width:1;"/><text fill="#FFFFFF" font-family="sans-serif" font-size="13" lengthAdjust="spacing" textLength="55.497" x="490.78" y="820.547">&#171;extend&#187;</text></g><!--link membro to Visualizar lista de ocorr?ncias--><g class="link" data-entity-1="membro" data-entity-2="Visualizar lista de ocorr&#234;ncias" data-source-line="30" data-uid="lnk32" id="link_membro_Visualizar lista de ocorr&#234;ncias"><path d="M71.17,856.65 C74.97,789.4 91.93,669.54 161.99,601.03 C176.84,586.51 190.4146,578.6569 210.3246,572.1769" fill="none" id="membro-to-Visualizar lista de ocorr&#234;ncias" style="stroke:#E7E7E7;stroke-width:1;"/><polygon fill="#E7E7E7" points="216.03,570.32,206.2339,569.3018,211.2755,571.8674,208.7098,576.909,216.03,570.32" style="stroke:#E7E7E7;stroke-width:1;"/></g><!--link membro to occdetail--><g class="link" data-entity-1="membro" data-entity-2="occdetail" data-source-line="31" data-uid="lnk33" id="link_membro_occdetail"><path d="M88.34,856.77 C103.59,820.13 128.37,770.67 161.99,736.03 C189.08,708.13 221.2733,688.7021 252.7433,673.4121" fill="none" id="membro-to-occdetail" style="stroke:#E7E7E7;stroke-width:1;"/><polygon fill="#E7E7E7" points="258.14,670.79,248.2969,671.1253,253.6427,672.975,251.7929,678.3209,258.14,670.79" style="stroke:#E7E7E7;stroke-width:1;"/></g><!--link membro to Receber notifica??o de ocorr?ncias--><g class="link" data-entity-1="membro" data-entity-2="Receber notifica&#231;&#227;o de ocorr&#234;ncias" data-source-line="32" data-uid="lnk35" id="link_membro_Receber notifica&#231;&#227;o de ocorr&#234;ncias"><path d="M75.8,856.65 C87.04,762.94 115.76,564.27 161.99,515.03 C174.85,501.33 185.9646,493.7718 203.6246,486.8418" fill="none" id="membro-to-Receber notifica&#231;&#227;o de ocorr&#234;ncias" style="stroke:#E7E7E7;stroke-width:1;"/><polygon fill="#E7E7E7" points="209.21,484.65,199.3708,484.2141,204.5555,486.4765,202.2931,491.6612,209.21,484.65" style="stroke:#E7E7E7;stroke-width:1;"/></g><!--reverse link occdetail to Alterar estado da ocorrencia--><g class="link" data-entity-1="occdetail" data-entity-2="Alterar estado da ocorrencia" data-source-line="33" data-uid="lnk37" id="link_occdetail_Alterar estado da ocorrencia"><path d="M451.409,643.6299 C498.279,642.7699 545.17,641.92 590.8,641.09" fill="none" id="occdetail-backto-Alterar estado da ocorrencia" style="stroke:#E7E7E7;stroke-width:1;stroke-dasharray:7.0,7.0;"/><polygon fill="#E7E7E7" points="445.41,643.74,454.4819,647.5742,450.4092,643.6483,454.3351,639.5756,445.41,643.74" style="stroke:#E7E7E7;stroke-width:1;"/><text fill="#FFFFFF" font-family="sans-serif" font-size="13" lengthAdjust="spacing" textLength="55.497" x="490.78" y="637.797">&#171;extend&#187;</text></g><!--link membro to Manter bens--><g class="link" data-entity-1="membro" data-entity-2="Manter bens" data-source-line="37" data-uid="lnk40" id="link_membro_Manter bens"><path d="M88.61,955.47 C103.79,991.18 128.37,1038.64 161.99,1071.03 C194.1,1101.95 235.0803,1121.3078 268.9503,1133.9778" fill="none" id="membro-to-Manter bens" style="stroke:#E7E7E7;stroke-width:1;"/><polygon fill="#E7E7E7" points="274.57,1136.08,267.5419,1129.1803,269.8869,1134.3282,264.739,1136.6732,274.57,1136.08" style="stroke:#E7E7E7;stroke-width:1;"/></g><!--link membro to Manter tipos de bem--><g class="link" data-entity-1="membro" data-entity-2="Manter tipos de bem" data-source-line="38" data-uid="lnk42" id="link_membro_Manter tipos de bem"><path d="M74.49,955.56 C83.84,1056.33 110.05,1280.27 161.99,1334.03 C179.43,1352.08 198.0137,1360.9007 222.3637,1366.5207" fill="none" id="membro-to-Manter tipos de bem" style="stroke:#E7E7E7;stroke-width:1;"/><polygon fill="#E7E7E7" points="228.21,1367.87,220.3401,1361.9485,223.3381,1366.7456,218.541,1369.7435,228.21,1367.87" style="stroke:#E7E7E7;stroke-width:1;"/></g><!--link membro to Manter alunos--><g class="link" data-entity-1="membro" data-entity-2="Manter alunos" data-source-line="39" data-uid="lnk44" id="link_membro_Manter alunos"><path d="M76.61,955.29 C88.68,1043.07 118.04,1221.35 161.99,1264.03 C182.98,1284.4 207.1842,1293.0544 235.3842,1297.2144" fill="none" id="membro-to-Manter alunos" style="stroke:#E7E7E7;stroke-width:1;"/><polygon fill="#E7E7E7" points="241.32,1298.09,233.0001,1292.8194,236.3735,1297.3603,231.8326,1300.7337,241.32,1298.09" style="stroke:#E7E7E7;stroke-width:1;"/></g><!--link membro to Manter marcas/modelo--><g class="link" data-entity-1="membro" data-entity-2="Manter marcas/modelo" data-source-line="40" data-uid="lnk46" id="link_membro_Manter marcas/modelo"><path d="M72.62,955.51 C78.18,1018.04 97.24,1124.77 161.99,1185.03 C179.04,1200.89 195.7299,1209.0524 218.3099,1214.8724" fill="none" id="membro-to-Manter marcas/modelo" style="stroke:#E7E7E7;stroke-width:1;"/><polygon fill="#E7E7E7" points="224.12,1216.37,216.4032,1210.2503,219.2782,1215.122,214.4065,1217.9971,224.12,1216.37" style="stroke:#E7E7E7;stroke-width:1;"/></g><!--link admin to membro--><g class="link" data-entity-1="admin" data-entity-2="membro" data-source-line="46" data-uid="lnk48" id="link_admin_membro"><path d="M69.39,1641.58 C69.39,1412.92 69.39,1202.26 69.39,973.59" fill="none" id="admin-to-membro" style="stroke:#E7E7E7;stroke-width:1;"/><polygon fill="none" points="69.39,955.59,63.39,973.59,75.39,973.59,69.39,955.59" style="stroke:#E7E7E7;stroke-width:1;"/></g><!--link admin to Manter usu?rios--><g class="link" data-entity-1="admin" data-entity-2="Manter usu&#225;rios" data-source-line="47" data-uid="lnk50" id="link_admin_Manter usu&#225;rios"><path d="M76.57,1740.52 C85.82,1793.14 108.35,1874.97 161.99,1921.03 C183.06,1939.11 205.5242,1947.5011 232.2942,1952.3011" fill="none" id="admin-to-Manter usu&#225;rios" style="stroke:#E7E7E7;stroke-width:1;"/><polygon fill="#E7E7E7" points="238.2,1953.36,230.0472,1947.8344,233.2785,1952.4775,228.6353,1955.7088,238.2,1953.36" style="stroke:#E7E7E7;stroke-width:1;"/></g><!--link admin to Manter roles--><g class="link" data-entity-1="admin" data-entity-2="Manter roles" data-source-line="48" data-uid="lnk52" id="link_admin_Manter roles"><path d="M86.08,1740.38 C100.2,1776.75 124.56,1824.5 161.99,1852.03 C186.19,1869.83 211.9258,1877.7638 240.3858,1882.0138" fill="none" id="admin-to-Manter roles" style="stroke:#E7E7E7;stroke-width:1;"/><polygon fill="#E7E7E7" points="246.32,1882.9,238.0095,1877.6146,241.3748,1882.1615,236.8279,1885.5269,246.32,1882.9" style="stroke:#E7E7E7;stroke-width:1;"/></g><!--link admin to Manter tipos de ocorrencia--><g class="link" data-entity-1="admin" data-entity-2="Manter tipos de ocorrencia" data-source-line="49" data-uid="lnk54" id="link_admin_Manter tipos de ocorrencia"><path d="M116.97,1736.86 C130.62,1748.36 146.16,1759.76 161.99,1768.03 C184.09,1779.57 203.8576,1786.633 227.7976,1792.933" fill="none" id="admin-to-Manter tipos de ocorrencia" style="stroke:#E7E7E7;stroke-width:1;"/><polygon fill="#E7E7E7" points="233.6,1794.46,225.9143,1788.3013,228.7646,1793.1875,223.8784,1796.0379,233.6,1794.46" style="stroke:#E7E7E7;stroke-width:1;"/></g><!--link admin to Manter cursos--><g class="link" data-entity-1="admin" data-entity-2="Manter cursos" data-source-line="50" data-uid="lnk56" id="link_admin_Manter cursos"><path d="M117.21,1698.98 C156.44,1705.64 206.8245,1714.1966 249.8045,1721.4866" fill="none" id="admin-to-Manter cursos" style="stroke:#E7E7E7;stroke-width:1;"/><polygon fill="#E7E7E7" points="255.72,1722.49,247.5156,1717.0413,250.7904,1721.6539,246.1778,1724.9286,255.72,1722.49" style="stroke:#E7E7E7;stroke-width:1;"/></g><!--link admin to Manter campi--><g class="link" data-entity-1="admin" data-entity-2="Manter campi" data-source-line="51" data-uid="lnk58" id="link_admin_Manter campi"><path d="M117.21,1685.73 C154.75,1681.48 201.988,1676.1344 244.158,1671.3644" fill="none" id="admin-to-Manter campi" style="stroke:#E7E7E7;stroke-width:1;"/><polygon fill="#E7E7E7" points="250.12,1670.69,240.7274,1667.7269,245.1517,1671.252,241.6266,1675.6762,250.12,1670.69" style="stroke:#E7E7E7;stroke-width:1;"/></g><!--link admin to Manter graus de fragilidade--><g class="link" data-entity-1="admin" data-entity-2="Manter graus de fragilidade" data-source-line="52" data-uid="lnk60" id="link_admin_Manter graus de fragilidade"><path d="M117.04,1654.45 C130.93,1644.83 146.58,1635.16 161.99,1628.03 C184.75,1617.51 204.8388,1610.7517 228.8888,1604.4017" fill="none" id="admin-to-Manter graus de fragilidade" style="stroke:#E7E7E7;stroke-width:1;"/><polygon fill="#E7E7E7" points="234.69,1602.87,224.9671,1601.3001,229.8557,1604.1464,227.0093,1609.035,234.69,1602.87" style="stroke:#E7E7E7;stroke-width:1;"/></g><!--link admin to Manter estados de conserva??o--><g class="link" data-entity-1="admin" data-entity-2="Manter estados de conserva&#231;&#227;o" data-source-line="53" data-uid="lnk62" id="link_admin_Manter estados de conserva&#231;&#227;o"><path d="M89.9,1641.73 C105.03,1609.52 129.01,1568.97 161.99,1544.03 C178.95,1531.21 193.7357,1523.8695 214.2257,1517.3095" fill="none" id="admin-to-Manter estados de conserva&#231;&#227;o" style="stroke:#E7E7E7;stroke-width:1;"/><polygon fill="#E7E7E7" points="219.94,1515.48,210.1489,1514.4147,215.1781,1517.0046,212.5882,1522.0337,219.94,1515.48" style="stroke:#E7E7E7;stroke-width:1;"/></g><!--link aluno to Receber e-mail de fim de empr?stimo--><g class="link" data-entity-1="aluno" data-entity-2="Receber e-mail de fim de empr&#233;stimo" data-source-line="58" data-uid="lnk65" id="link_aluno_Receber e-mail de fim de empr&#233;stimo"><path d="M88.98,45.03 C108.82,45.03 136.17,45.03 171.36,45.03" fill="none" id="aluno-to-Receber e-mail de fim de empr&#233;stimo" style="stroke:#E7E7E7;stroke-width:1;"/><polygon fill="#E7E7E7" points="177.36,45.03,168.36,41.03,172.36,45.03,168.36,49.03,177.36,45.03" style="stroke:#E7E7E7;stroke-width:1;"/></g><!--SRC=[bLNBRjim4BpdAnQ-H3aulXk60QD8SWfQk6ZlAsgb42L5WwJI86q_fkYXQ7_3FzObzQ9JHNLz4S4TpWvdbsi0HQK7Ry3Awi538Iq9BqrzSG5mGF49AuB5U-ayQOJFb2_W2qS0rXzSS_nkfLa3EcWSsNRxddHksqqTbx3Px8sYxRQDxmejQwQpM1WROHXsHbI4hIwXvuVBLTmAkh2k5Cl1nbFjfK211WZUaIsbweM5Nv03IxlSGdQBpxnMffBrrOluINXfod8AS8-rvxN00bcqQI7V1fNjTNkDtOqvyzVjw4cY_8wSPyq5mOq-sEClvwKsBfM- -2XTWqe-esMOH_L03Wg-veXV1DSotWXngKRLVNhMFKIdWjbD8Jtp9voJ9DcUEYMJo247RAwl8RiZoqWsIySBMd87KplCfP855dG5QouoFN7fYguP_arIqADHpV7dyOSvx_nE-SWGV6RNJeqxZs9FLUnF2qOOQwaM4YTETZqmMTotmy4pQej9dhQqHeYPqcO9YsAb6396YkFlc7BorC3vIg45vTpcjV6ov8SL7N-TTo2RDXt_rxattUlYOT0ySRyWDqzgN2grUv0vrTCNxG5U7fYFhv2JdWMYQceppwNH2dGhRGfIumZePy39I9iOLsCysffUh9rzOLgqMLy64WrDDmyJfN-3BC_GMS3WIbAX6RXeh9lFA50Vv1oWijZ4ZAN5gfy5C_YsYU89mVE3x6DhMszxrp_hNIXR-mSILhmLlwVzJ4iTkZHabpfyqcdm1m00]--></g></svg>